<svg xmlns="http://www.w3.org/2000/svg" viewBox="0 0 3137 1992" width="3137" height="1992">
	<style>
		tspan { white-space:pre }
		.shp0 { fill: #deff00 } 
	</style>
	<path id="Path 0" fill-rule="evenodd" class="shp0" d="M1719.19 11.5C1719.58 14.8 1719.47 25.38 1718.94 35C1718.41 44.63 1717.52 59.92 1716.96 69C1716.4 78.08 1715.53 92.92 1715.02 102C1714.52 111.08 1713.63 127.05 1713.06 137.5C1712.49 147.95 1711.56 163.81 1711.01 172.75C1710.45 181.69 1709.56 196.31 1709.02 205.25C1708.49 214.19 1707.59 229.38 1707.03 239C1706.47 248.63 1705.55 264.15 1704.99 273.5C1704.43 282.85 1703.71 295.45 1703.38 301.5C1703.06 307.55 1702.65 316.1 1702.48 320.5C1702.31 324.9 1701.9 333.9 1701.58 340.5C1701.25 347.1 1700.31 364.43 1699.49 379C1698.67 393.57 1697.56 412.02 1697.03 420C1696.5 427.98 1695.59 442.6 1695.02 452.5C1694.44 462.4 1693.52 478.15 1692.96 487.5C1692.4 496.85 1691.52 511.48 1690.99 520C1690.47 528.52 1689.36 547.65 1688.53 562.5C1687.7 577.35 1686.56 596.92 1686.01 606C1685.45 615.08 1684.55 630.49 1684 640.25C1683.45 650.01 1682.54 665.99 1681.99 675.75C1681.43 685.51 1680.53 700.02 1679.98 708C1679.44 715.98 1678.79 727.9 1678.54 734.5C1678.3 741.1 1677.85 747.85 1677.56 749.5C1677.27 751.15 1676.79 758.8 1676.51 766.5C1676.23 774.2 1675.76 785.45 1675.48 791.5C1675.19 797.55 1674.28 814.2 1673.45 828.5C1672.62 842.8 1671.52 862.15 1671 871.5C1670.49 880.85 1669.61 895.92 1669.05 905C1668.49 914.08 1667.8 924.09 1667.52 927.25C1667.2 930.76 1667.39 933 1668 933C1668.55 933 1669.63 930.86 1670.41 928.25C1671.18 925.64 1674.48 916.98 1677.74 909C1681 901.02 1687.11 885.73 1691.3 875C1695.5 864.27 1702.37 846.73 1706.58 836C1710.78 825.27 1717.13 809.08 1720.69 800C1724.24 790.92 1728.87 778.77 1730.98 773C1733.08 767.23 1735.79 760.25 1736.99 757.5C1738.19 754.75 1741.45 746.88 1744.24 740C1747.03 733.13 1750.98 722.77 1753.02 717C1755.06 711.23 1761.53 694.58 1767.39 680C1773.25 665.42 1779.15 650.58 1780.51 647C1781.86 643.42 1785.7 633.52 1789.05 625C1792.39 616.48 1796.67 605.79 1798.56 601.25C1800.45 596.71 1802 592.33 1802 591.5C1802 590.67 1803.14 587.86 1804.52 585.25C1805.91 582.64 1807.04 580.05 1807.02 579.5C1807.01 578.95 1809.95 571.08 1813.57 562C1817.19 552.92 1820.68 544.87 1821.32 544.1C1821.97 543.33 1823.52 540.18 1824.77 537.1C1826.89 531.87 1826.99 531.76 1826.38 535.5C1826.01 537.7 1825.62 541.08 1825.5 543C1825.38 544.92 1824.95 548.08 1824.56 550C1824.16 551.92 1822.06 560.92 1819.88 570C1817.71 579.08 1815.5 588.3 1814.98 590.5C1814.46 592.7 1812.93 599.23 1811.59 605C1810.25 610.77 1808.94 616.85 1808.68 618.5C1808.42 620.15 1807.9 622.85 1807.53 624.5C1807.16 626.15 1805.57 632.9 1804 639.5C1802.42 646.1 1799.77 657.13 1798.11 664C1796.44 670.88 1793.27 684.15 1791.07 693.5C1788.86 702.85 1786.34 713.88 1785.46 718C1784.58 722.13 1783.23 728.42 1782.45 732C1781.67 735.58 1778.98 747.05 1776.46 757.5C1773.95 767.95 1771.27 779.2 1770.5 782.5C1769.74 785.8 1767.49 795.25 1765.51 803.5C1763.53 811.75 1761.51 820.3 1761.02 822.5C1760.54 824.7 1759.68 828.52 1759.12 831C1758.56 833.48 1757.59 837.98 1756.97 841C1756.34 844.02 1754.78 851 1753.5 856.5C1752.21 862 1749.73 872.58 1747.97 880C1746.21 887.42 1743.04 900.7 1740.93 909.5C1738.82 918.3 1735.24 933.15 1732.98 942.5C1730.72 951.85 1729.03 960.4 1729.21 961.5C1729.48 963.04 1730.31 962.25 1732.84 958C1734.65 954.98 1738.8 948.23 1742.07 943C1745.34 937.77 1751 928.55 1754.66 922.5C1758.32 916.45 1769.18 898.67 1778.8 883C1788.43 867.33 1798.84 850.45 1801.94 845.5C1805.04 840.55 1808.12 835.38 1808.78 834C1809.45 832.63 1812.3 827.9 1815.11 823.5C1817.93 819.1 1822.73 811.45 1825.78 806.5C1828.83 801.55 1833.89 793.23 1837.03 788C1840.17 782.77 1845.1 774.67 1848 770C1850.89 765.33 1856.51 756.1 1860.49 749.5C1864.47 742.9 1871.43 731.65 1875.96 724.5C1880.49 717.35 1885.75 708.8 1887.64 705.5C1889.53 702.2 1892.92 696.58 1895.16 693C1897.4 689.42 1903.3 679.75 1908.27 671.5C1913.23 663.25 1919.63 652.9 1922.48 648.5C1925.34 644.1 1930.71 635.33 1934.43 629C1938.14 622.67 1942.13 615.92 1943.29 614C1944.45 612.08 1947.73 606.9 1950.59 602.5C1953.44 598.1 1960.25 587.08 1965.73 578C1971.21 568.92 1979.66 554.98 1984.53 547C1989.39 539.02 1995.74 528.67 1998.64 524C2001.53 519.33 2006.51 511.3 2009.7 506.16C2012.89 501.03 2016.4 495.29 2017.5 493.41C2018.6 491.54 2021.63 486.51 2024.23 482.25C2026.83 477.99 2034.34 465.73 2040.92 455C2047.49 444.27 2055.72 430.86 2059.19 425.2C2062.66 419.53 2067.03 412.33 2068.91 409.2C2070.78 406.06 2075.7 398.1 2079.84 391.5C2083.97 384.9 2092.28 371.4 2098.29 361.5C2104.31 351.6 2111.54 339.74 2114.37 335.14C2117.19 330.54 2121.02 324.24 2122.88 321.14C2124.73 318.04 2132.66 305.15 2140.48 292.5C2148.31 279.85 2156.29 266.8 2158.21 263.5C2160.14 260.2 2165.26 251.8 2169.61 244.82C2173.95 237.85 2181.1 226.25 2185.5 219.04C2189.9 211.82 2197.91 198.63 2203.29 189.71C2208.67 180.8 2213.66 173.05 2214.36 172.5C2215.07 171.95 2216.85 169.36 2218.32 166.75C2219.8 164.14 2221.45 162 2222 162C2222.55 162 2223 162.11 2223 162.25C2222.99 162.39 2221.86 164.75 2220.48 167.5C2219.1 170.25 2217.98 173.18 2217.99 174C2218.01 174.82 2215.83 180.45 2213.16 186.5C2210.49 192.55 2207.95 198.63 2207.52 200C2207.09 201.38 2202.37 212.4 2197.04 224.5C2191.71 236.6 2186.76 248.07 2186.04 250C2185.32 251.93 2183.47 256.43 2181.93 260C2180.39 263.57 2175 275.95 2169.96 287.5C2164.92 299.05 2159.71 310.98 2158.37 314C2157.04 317.02 2155.95 319.95 2155.95 320.5C2155.96 321.05 2151.07 332.52 2145.09 346C2139.1 359.48 2131.87 376.13 2129 383C2126.13 389.88 2122.21 399.1 2120.28 403.5C2118.35 407.9 2115.19 415.1 2113.27 419.5C2111.34 423.9 2106.94 434.25 2103.49 442.5C2100.04 450.75 2093.08 466.95 2088.01 478.5C2082.95 490.05 2078.17 501.3 2077.39 503.5C2076.61 505.7 2075.32 508.85 2074.52 510.5C2073.72 512.15 2068.6 523.85 2063.14 536.5C2057.68 549.15 2051.18 564.45 2048.69 570.5C2046.21 576.55 2042.39 585.55 2040.2 590.5C2038.02 595.45 2035.13 601.98 2033.78 605C2032.43 608.02 2029.4 615 2027.04 620.5C2024.69 626 2021.94 632.52 2020.93 635C2019.93 637.48 2015.98 646.7 2012.15 655.5C2008.33 664.3 2002.72 677.35 1999.69 684.5C1996.66 691.65 1991.03 704.92 1987.19 714C1983.35 723.08 1978.32 734.55 1976.01 739.5C1973.71 744.45 1970.34 752.33 1968.53 757C1966.72 761.67 1962.67 771.35 1959.52 778.5C1956.38 785.65 1952.05 795.44 1949.9 800.25C1947.76 805.06 1945.99 809.34 1945.98 809.75C1945.97 810.16 1944.64 813.42 1943.02 817C1941.4 820.58 1937.4 829.8 1934.12 837.5C1930.85 845.2 1925.72 857.13 1922.73 864C1919.74 870.88 1916.72 878.3 1916.02 880.5C1915.31 882.7 1914.39 884.95 1913.97 885.5C1913.54 886.05 1910.65 892.35 1907.53 899.5C1904.41 906.65 1897.22 923.52 1891.54 937C1885.87 950.48 1877.64 969.6 1873.26 979.5C1868.87 989.4 1864.28 1000.2 1863.05 1003.5C1861.82 1006.8 1860.15 1010.85 1859.33 1012.5C1858.52 1014.15 1858.22 1015.87 1858.67 1016.32C1859.13 1016.77 1862.48 1013.84 1866.12 1009.82C1869.76 1005.79 1876.74 997.97 1881.62 992.42C1886.5 986.88 1897.92 973.85 1907 963.46C1916.08 953.08 1925.97 941.84 1929 938.5C1932.03 935.16 1938.1 928.19 1942.5 923.03C1946.9 917.86 1952.65 911.35 1955.27 908.56C1957.9 905.78 1962.63 900.39 1965.77 896.59C1968.92 892.78 1974.46 886.48 1978.08 882.59C1981.7 878.69 1990.93 868.34 1998.58 859.58C2006.24 850.82 2015.17 840.47 2018.44 836.58C2021.71 832.69 2028.91 824.51 2034.44 818.4C2039.97 812.3 2051.7 799.06 2060.5 788.98C2069.3 778.91 2080.1 766.62 2084.5 761.68C2088.9 756.74 2097 747.42 2102.5 740.96C2108 734.51 2115.43 726.01 2119 722.07C2122.57 718.13 2129.22 710.99 2133.77 706.2C2138.32 701.42 2142.24 697.73 2142.49 698C2142.74 698.27 2141.83 700.19 2140.47 702.25C2139.11 704.31 2138 706.45 2138 707C2138 707.55 2134.94 712.61 2131.2 718.25C2127.46 723.89 2118.8 737.16 2111.95 747.74C2105.1 758.32 2096.25 772.04 2092.28 778.24C2088.31 784.43 2083.68 791.52 2082 794C2080.32 796.48 2073.95 806.15 2067.83 815.5C2061.72 824.85 2050.18 842.63 2042.2 855C2034.21 867.38 2025.21 881.33 2022.18 886C2019.16 890.67 2011.92 901.79 2006.09 910.7C2000.27 919.62 1990.27 934.92 1983.88 944.7C1977.5 954.49 1966.3 971.73 1958.99 983C1951.69 994.27 1942.52 1008.43 1938.61 1014.45C1934.7 1020.48 1927.45 1031.59 1922.5 1039.15C1917.55 1046.71 1911.59 1055.96 1909.25 1059.7C1906.92 1063.44 1905.22 1066.72 1905.49 1067C1905.75 1067.28 1907.66 1066.31 1909.73 1064.86C1911.81 1063.41 1916.96 1059.36 1921.18 1055.86C1925.4 1052.36 1932.32 1046.8 1936.56 1043.5C1940.79 1040.2 1946.19 1035.92 1948.55 1034C1950.91 1032.08 1956.59 1027.51 1961.17 1023.86C1965.75 1020.2 1974.22 1013.49 1980 1008.94C1985.78 1004.39 1992.53 999.03 1995 997.02C1997.47 995.01 2004.52 989.34 2010.67 984.43C2016.81 979.52 2028 970.55 2035.53 964.5C2043.07 958.45 2050.73 952.38 2052.56 951C2054.4 949.63 2058.73 946.26 2062.2 943.53C2065.66 940.8 2071.23 936.3 2074.57 933.53C2077.91 930.76 2093.19 918.6 2108.53 906.5C2123.87 894.4 2137.56 883.38 2138.96 882C2140.35 880.63 2142.92 878.6 2144.66 877.5C2146.41 876.4 2150.92 872.92 2154.67 869.76C2158.43 866.6 2167.35 859.43 2174.5 853.82C2181.65 848.22 2192.85 839.33 2199.39 834.06C2205.93 828.8 2214.54 822.02 2218.53 819C2222.52 815.98 2229.77 810.25 2234.64 806.27C2239.51 802.29 2248.6 794.87 2254.84 789.77C2261.08 784.67 2267.19 779.83 2268.42 779C2269.64 778.17 2275.99 773.23 2282.53 768C2289.07 762.77 2295.33 757.7 2296.46 756.72C2297.58 755.74 2306.53 748.54 2316.35 740.72C2326.17 732.9 2335.4 725.61 2336.85 724.53C2338.31 723.44 2347.15 716.5 2356.5 709.1C2365.85 701.7 2378.85 691.34 2385.38 686.07C2391.92 680.81 2400.24 674.13 2403.88 671.24C2407.52 668.34 2412.1 664.74 2414.06 663.24C2416.01 661.73 2425.91 653.88 2436.06 645.79C2446.2 637.7 2460.35 626.34 2467.5 620.55C2474.65 614.75 2484.55 606.94 2489.5 603.18C2494.45 599.42 2500.6 594.58 2503.17 592.42C2505.74 590.26 2511.53 585.58 2516.04 582C2520.55 578.42 2526.19 573.92 2528.58 572C2530.96 570.08 2535.97 566.09 2539.71 563.15C2543.44 560.2 2553.03 552.61 2561 546.28C2568.97 539.95 2583.2 528.63 2592.61 521.13C2602.03 513.64 2614.08 504.13 2619.39 500C2624.71 495.88 2631.18 490.81 2633.78 488.74C2636.38 486.68 2639.06 484.99 2639.75 484.99C2640.44 485 2641 485.23 2641 485.5C2641 485.77 2639.79 487.01 2638.32 488.25C2636.84 489.49 2633.29 493.43 2630.42 497C2627.55 500.57 2622.57 506.2 2619.34 509.5C2616.1 512.8 2603.32 526.3 2590.92 539.5C2578.52 552.7 2565.48 566.64 2561.94 570.48C2558.4 574.31 2543.8 589.86 2529.5 605.03C2515.2 620.2 2493.59 643.16 2481.47 656.06C2469.35 668.95 2452.71 686.7 2444.5 695.5C2436.29 704.3 2418.98 722.7 2406.03 736.39C2393.09 750.08 2379.62 764.48 2376.1 768.39C2372.58 772.3 2365.79 779.55 2361.01 784.5C2356.23 789.45 2347.37 798.9 2341.31 805.5C2335.26 812.1 2329.49 818.17 2328.49 819C2327.49 819.83 2323.98 823.65 2320.68 827.5C2317.38 831.35 2308.12 841.44 2300.09 849.91C2292.07 858.39 2280.55 870.55 2274.5 876.92C2268.45 883.3 2253.82 898.86 2242 911.49C2230.18 924.13 2215.55 939.67 2209.5 946.02C2203.45 952.38 2193.35 963.18 2187.06 970.04C2180.77 976.89 2171.97 986.33 2167.51 991C2163.05 995.67 2154.92 1004.23 2149.44 1010C2143.97 1015.77 2130.5 1030.17 2119.5 1041.99C2108.5 1053.81 2094.99 1068.21 2089.47 1073.99C2083.96 1079.77 2076.98 1087.2 2073.97 1090.5C2070.96 1093.8 2062.64 1102.77 2055.5 1110.44C2048.35 1118.1 2038.42 1128.68 2033.44 1133.94C2028.46 1139.2 2020.7 1147.44 2016.19 1152.25C2011.69 1157.06 2008 1161.45 2008 1162C2008 1162.55 2008.45 1163 2009 1163C2009.55 1163 2019.11 1158 2030.25 1151.89C2041.39 1145.78 2050.95 1140.43 2051.5 1140C2052.05 1139.57 2064.2 1132.93 2078.5 1125.25C2092.8 1117.56 2109.22 1108.69 2115 1105.53C2120.78 1102.37 2132.47 1095.94 2141 1091.24C2149.53 1086.55 2163.03 1079.11 2171 1074.73C2178.97 1070.34 2187.3 1065.85 2189.5 1064.75C2191.7 1063.65 2201.82 1058.16 2212 1052.54C2222.18 1046.92 2239.05 1037.68 2249.5 1032C2259.95 1026.33 2273.45 1018.84 2279.5 1015.37C2285.55 1011.89 2290.84 1009.04 2291.25 1009.03C2291.66 1009.01 2299.09 1005.08 2307.75 1000.29C2316.41 995.51 2328.9 988.51 2335.5 984.74C2342.1 980.98 2355.26 974.1 2364.75 969.45C2374.24 964.8 2382.22 961.23 2382.5 961.5C2382.78 961.77 2381.35 963.24 2379.33 964.75C2377.32 966.26 2374.51 968.65 2373.08 970.06C2371.66 971.47 2365.34 976.42 2359.02 981.06C2352.71 985.7 2346.79 990.17 2345.86 991C2344.93 991.83 2337.05 997.81 2328.34 1004.3C2319.63 1010.78 2301 1024.73 2286.94 1035.3C2272.88 1045.86 2259.15 1056.23 2256.44 1058.34C2253.72 1060.45 2242.5 1068.94 2231.5 1077.2C2220.5 1085.47 2207.27 1095.44 2202.11 1099.37C2196.94 1103.29 2190.86 1107.79 2188.61 1109.37C2186.35 1110.95 2180.67 1115.22 2176 1118.87C2171.32 1122.52 2165.47 1126.99 2163 1128.8C2160.52 1130.62 2150.92 1137.82 2141.66 1144.8C2132.4 1151.79 2122.64 1159.08 2119.98 1161C2117.32 1162.92 2102.62 1173.92 2087.32 1185.43C2072.02 1196.94 2053.98 1210.67 2047.22 1215.93C2040.47 1221.19 2034.96 1225.84 2034.97 1226.25C2034.99 1226.66 2039.61 1225.49 2045.25 1223.65C2050.89 1221.8 2067.43 1216.24 2082 1211.28C2096.57 1206.33 2112.78 1200.87 2118 1199.16C2123.22 1197.44 2135.6 1193.37 2145.5 1190.12C2155.4 1186.86 2174.07 1180.51 2187 1176C2199.93 1171.5 2212.75 1167.15 2215.5 1166.33C2218.25 1165.51 2233.78 1160.41 2250 1155C2266.22 1149.59 2286.93 1142.7 2296 1139.68C2305.07 1136.67 2315.43 1133.3 2319 1132.19C2322.57 1131.07 2336.07 1126.56 2349 1122.14C2361.93 1117.73 2379.93 1111.64 2389 1108.6C2398.07 1105.57 2408.88 1101.93 2413 1100.52C2417.13 1099.11 2422.75 1097.31 2425.5 1096.53C2428.25 1095.74 2441.07 1091.46 2454 1087C2466.93 1082.54 2484.93 1076.49 2494 1073.55C2503.07 1070.61 2512.07 1067.66 2514 1066.99C2515.93 1066.31 2519.75 1065 2522.5 1064.07C2525.25 1063.13 2537.18 1059.1 2549 1055.1C2560.82 1051.1 2577.03 1045.78 2585 1043.28C2592.97 1040.77 2601.86 1037.89 2604.75 1036.86C2607.64 1035.84 2612.36 1034.17 2615.25 1033.16C2618.14 1032.15 2624.78 1029.93 2630 1028.25C2635.22 1026.56 2647.38 1022.47 2657 1019.18C2666.63 1015.88 2686.2 1009.32 2700.5 1004.6C2714.8 999.89 2738.65 991.91 2753.5 986.87C2768.35 981.84 2789.28 974.89 2800 971.44C2810.72 967.99 2838.4 958.8 2861.5 951.02C2884.6 943.24 2906.88 935.98 2911 934.9C2915.13 933.81 2919.4 932.65 2920.5 932.33C2922.01 931.89 2921.83 932.27 2919.75 933.88C2918.24 935.04 2916.55 936 2916 936C2915.45 936 2914.1 936.9 2913 938C2911.9 939.1 2885.24 952.99 2853.75 968.87C2822.26 984.74 2778.95 1006.63 2757.5 1017.51C2736.05 1028.38 2706.13 1043.52 2691 1051.15C2675.88 1058.78 2661.25 1066.15 2658.5 1067.53C2655.75 1068.92 2643.82 1074.94 2632 1080.9C2620.18 1086.87 2587.55 1103.35 2559.5 1117.52C2531.45 1131.69 2486.22 1154.52 2459 1168.25C2431.78 1181.98 2390.15 1203.01 2366.5 1215C2342.85 1226.98 2304.6 1246.34 2281.5 1258.01C2258.4 1269.69 2210.03 1294.09 2174 1312.23C2137.97 1330.38 2106.14 1346.52 2103.25 1348.11C2100.36 1349.7 2098 1351.22 2098 1351.5C2098 1351.78 2099.69 1351.73 2101.75 1351.41C2103.81 1351.09 2107.53 1350.67 2110 1350.49C2112.47 1350.31 2119 1349.45 2124.5 1348.58C2130 1347.71 2137.54 1346.55 2141.25 1346C2144.96 1345.45 2150.81 1344.57 2154.25 1344.05C2157.69 1343.53 2162.3 1342.85 2164.5 1342.54C2166.7 1342.23 2187.4 1339.05 2210.5 1335.48C2233.6 1331.91 2256.55 1328.31 2261.5 1327.49C2266.45 1326.67 2273.65 1325.58 2277.5 1325.06C2281.35 1324.54 2288.78 1323.39 2294 1322.51C2299.22 1321.63 2307.55 1320.49 2312.5 1319.98C2317.45 1319.47 2324.2 1318.63 2327.5 1318.1C2330.8 1317.57 2336.65 1316.64 2340.5 1316.03C2344.35 1315.41 2350.2 1314.5 2353.5 1314C2356.8 1313.5 2365.57 1312.15 2373 1310.99C2380.43 1309.84 2389.43 1308.51 2393 1308.05C2396.57 1307.59 2403.78 1306.5 2409 1305.63C2414.22 1304.77 2430.43 1302.23 2445 1300C2459.57 1297.76 2474.65 1295.46 2478.5 1294.89C2482.35 1294.32 2489.1 1293.2 2493.5 1292.4C2497.9 1291.6 2506.45 1290.78 2523.5 1290.2L2509.5 1295.04C2501.8 1297.7 2480.88 1304.36 2463 1309.83C2445.13 1315.31 2421.5 1322.48 2410.5 1325.76C2399.5 1329.05 2379.25 1335.21 2365.5 1339.46C2351.75 1343.71 2334.65 1348.97 2327.5 1351.14C2320.35 1353.32 2312.25 1355.74 2309.5 1356.52C2306.75 1357.31 2300.22 1359.24 2295 1360.82C2289.78 1362.4 2277.85 1366.04 2268.5 1368.91C2259.15 1371.78 2244.64 1376.35 2236.25 1379.07C2227.86 1381.78 2220.44 1383.99 2219.75 1383.99C2219.06 1383.98 2205.22 1388.07 2189 1393.06C2172.78 1398.06 2154.32 1403.76 2148 1405.73C2141.68 1407.69 2132.38 1410.47 2127.35 1411.9C2122.31 1413.33 2117.85 1414.84 2117.43 1415.25C2117.01 1415.66 2115.73 1415.99 2114.58 1415.99C2113.44 1415.98 2110.25 1416.7 2107.5 1417.59C2104.67 1418.5 2102.93 1419.54 2103.5 1419.98C2104.05 1420.42 2116.2 1421.06 2130.5 1421.41C2144.8 1421.76 2170.68 1422.47 2188 1422.98C2205.32 1423.5 2229.4 1424.17 2241.5 1424.48C2253.6 1424.79 2276.55 1425.48 2292.5 1426.01C2308.45 1426.54 2338.15 1427.43 2358.5 1427.99C2378.85 1428.54 2409.22 1429.46 2426 1430.04C2442.78 1430.61 2475.4 1431.53 2498.5 1432.07C2521.6 1432.62 2554.22 1433.48 2571 1433.99C2587.78 1434.5 2617.93 1435.38 2638 1435.95C2658.07 1436.53 2690.47 1437.45 2710 1438.01C2729.53 1438.57 2760.57 1439.47 2779 1440.02C2797.43 1440.56 2820.6 1441.23 2830.5 1441.5C2840.4 1441.77 2850.3 1442.44 2852.5 1442.98C2854.7 1443.52 2857.85 1444.13 2859.5 1444.33C2861.18 1444.54 2860.18 1444.77 2857.25 1444.85C2854.36 1444.93 2851.89 1445.5 2851.75 1446.1C2851.59 1446.8 2844.5 1447.7 2832.5 1448.56C2822.05 1449.3 2808.32 1450.39 2802 1450.98C2795.68 1451.57 2785.55 1452.48 2779.5 1452.99C2773.45 1453.51 2763.55 1454.4 2757.5 1454.97C2751.45 1455.54 2741.55 1456.44 2735.5 1456.98C2729.45 1457.51 2713.93 1458.87 2701 1459.99C2688.07 1461.11 2669.63 1462.68 2660 1463.48C2650.38 1464.29 2640.7 1465.18 2638.5 1465.47C2636.3 1465.76 2629.55 1466.43 2623.5 1466.97C2617.45 1467.5 2599.9 1469.07 2584.5 1470.45C2569.1 1471.84 2549.07 1473.68 2540 1474.56C2530.93 1475.43 2515.18 1476.78 2505 1477.55C2494.82 1478.32 2483.13 1479.18 2479 1479.45C2474.88 1479.73 2467 1480.4 2461.5 1480.95C2456 1481.49 2445.88 1482.42 2439 1483.01C2432.13 1483.59 2421.66 1484.51 2415.75 1485.04C2409.84 1485.57 2400.16 1486.44 2394.25 1486.98C2388.34 1487.52 2378.1 1488.42 2371.5 1488.99C2364.9 1489.56 2355 1490.46 2349.5 1490.98C2344 1491.51 2334.1 1492.4 2327.5 1492.97C2320.9 1493.54 2302.9 1495.12 2287.5 1496.48C2272.1 1497.84 2254.1 1499.46 2247.5 1500.07C2240.9 1500.69 2227.18 1501.94 2217 1502.85C2205.96 1503.83 2198.6 1504.9 2198.75 1505.5C2198.89 1506.05 2200.24 1506.61 2201.75 1506.75C2203.26 1506.88 2206.97 1507.45 2210 1508C2213.03 1508.55 2219.32 1509.45 2224 1510.01C2228.68 1510.56 2236.55 1511.68 2241.5 1512.5C2246.45 1513.32 2253.65 1514.44 2257.5 1514.98C2261.35 1515.52 2271.7 1517.11 2280.5 1518.52C2289.3 1519.92 2301 1521.73 2306.5 1522.54C2312 1523.36 2319.65 1524.46 2323.5 1525C2327.35 1525.54 2333.2 1526.42 2336.5 1526.96C2339.8 1527.49 2348.57 1528.86 2356 1530.01C2363.43 1531.15 2372.43 1532.54 2376 1533.1C2379.57 1533.65 2385.43 1534.5 2389 1534.99C2392.57 1535.48 2399.1 1536.37 2403.5 1536.99C2407.9 1537.6 2413.07 1538.26 2415 1538.46C2416.93 1538.66 2425.03 1539.78 2433 1540.95C2440.97 1542.12 2449.75 1543.5 2452.5 1544.03C2455.25 1544.56 2466.72 1546.35 2478 1548.02C2489.28 1549.68 2503.9 1551.89 2510.5 1552.94C2517.1 1553.99 2527.45 1555.58 2533.5 1556.49C2539.55 1557.39 2549.9 1558.97 2556.5 1560C2563.1 1561.03 2570.3 1562.1 2572.5 1562.38C2574.7 1562.66 2579.2 1563.37 2582.5 1563.96C2585.8 1564.55 2595.03 1565.97 2603 1567.12C2610.97 1568.26 2620.2 1569.61 2623.5 1570.1C2626.8 1570.6 2631.75 1571.22 2634.5 1571.48C2637.25 1571.75 2644 1572.67 2649.5 1573.53C2655 1574.39 2663.55 1575.73 2668.5 1576.49C2673.45 1577.25 2685.15 1579.04 2694.5 1580.47C2703.85 1581.91 2720.28 1584.43 2731 1586.09C2741.72 1587.74 2756.35 1589.97 2763.5 1591.05C2770.65 1592.12 2779.88 1593.48 2784 1594.06C2788.13 1594.65 2794.2 1595.55 2797.5 1596.07C2800.8 1596.59 2808 1597.72 2813.5 1598.59C2819 1599.45 2824.85 1600.28 2826.5 1600.43C2828.15 1600.58 2832.65 1601.2 2836.5 1601.81C2840.35 1602.42 2848.45 1603.62 2854.5 1604.47C2860.55 1605.32 2874.5 1607.38 2885.5 1609.04C2896.5 1610.71 2910 1612.73 2915.5 1613.55C2921 1614.36 2930.68 1615.89 2937 1616.96C2943.32 1618.02 2953.9 1619.6 2960.5 1620.47C2967.1 1621.34 2974.97 1622.5 2978 1623.06C2981.03 1623.61 2988 1624.73 2993.5 1625.55C2999 1626.36 3009.57 1627.9 3017 1628.96C3024.43 1630.03 3031.18 1631.12 3032 1631.39C3032.82 1631.66 3036.43 1632.11 3040 1632.4C3043.57 1632.68 3058.43 1634.75 3073 1636.99C3087.57 1639.23 3104 1641.75 3109.5 1642.59C3115 1643.42 3119.61 1644.53 3119.75 1645.05C3119.89 1645.57 3121.24 1646.03 3122.75 1646.07C3124.26 1646.11 3126.4 1646.49 3127.5 1646.92C3128.83 1647.44 3126.47 1647.94 3120.5 1648.41C3115.55 1648.8 3089 1648.65 3061.5 1648.07C3034 1647.49 2991.25 1646.57 2966.5 1646.02C2941.75 1645.46 2900.57 1644.56 2875 1644.01C2849.43 1643.46 2809.6 1642.56 2786.5 1642.01C2763.4 1641.46 2725.15 1640.55 2701.5 1640C2677.85 1639.44 2638.25 1638.54 2613.5 1637.99C2588.75 1637.45 2555 1636.77 2538.5 1636.49C2522 1636.2 2503.55 1635.76 2497.5 1635.52C2491.45 1635.27 2467.82 1634.83 2445 1634.54C2422.18 1634.26 2395.85 1633.79 2386.5 1633.51C2377.15 1633.22 2358.03 1632.77 2344 1632.5C2329.97 1632.23 2288.13 1631.34 2251 1630.53C2213.88 1629.71 2176.19 1628.81 2167.25 1628.52C2158.31 1628.23 2150.21 1627.61 2149.25 1627.13C2148.29 1626.65 2142.82 1618.89 2137.09 1609.88C2131.37 1600.87 2124.2 1589.9 2121.16 1585.5C2118.12 1581.1 2110.42 1570.53 2104.05 1562C2097.68 1553.47 2088.43 1541.71 2083.48 1535.86C2078.54 1530 2072.54 1522.8 2070.15 1519.86C2067.76 1516.91 2061.91 1510.43 2057.15 1505.45C2052.39 1500.48 2045.74 1493.5 2042.37 1489.95C2039 1486.4 2029.33 1476.92 2020.87 1468.88C2012.42 1460.84 2002.35 1451.6 1998.5 1448.34C1994.65 1445.08 1987.9 1439.49 1983.5 1435.93C1979.1 1432.36 1970.78 1425.85 1965 1421.45C1959.22 1417.05 1953.38 1412.66 1952 1411.69C1950.63 1410.73 1946.8 1407.91 1943.5 1405.43C1940.2 1402.94 1930.9 1396.54 1922.83 1391.21C1914.76 1385.87 1906.89 1380.77 1905.33 1379.87C1903.77 1378.97 1896.42 1374.56 1889 1370.07C1881.58 1365.57 1862.22 1355.26 1846 1347.15C1829.78 1339.04 1811.1 1330.12 1804.5 1327.31C1797.9 1324.51 1790.7 1321.87 1784.5 1320.67L1786.27 1323.08C1787.24 1324.41 1788.96 1327.53 1790.09 1330C1791.21 1332.47 1792.6 1338.1 1793.17 1342.5C1793.77 1347.17 1793.94 1357.17 1793.57 1366.5C1793.22 1375.3 1792.27 1389.03 1791.46 1397C1790.65 1404.97 1788.85 1419.83 1787.46 1430C1786.07 1440.17 1782.91 1461.78 1780.44 1478C1777.97 1494.22 1776.07 1507.57 1776.22 1507.65C1776.38 1507.73 1785.72 1508.33 1797 1508.97C1808.28 1509.62 1817.76 1509.77 1818.08 1509.32C1818.4 1508.87 1822.45 1496.24 1835.5 1454.01L1840.5 1454.01C1843.25 1454.01 1848.42 1454.46 1852 1455.01C1855.58 1455.56 1861.56 1456.79 1872.09 1459.5L1873.58 1464.5C1874.4 1467.25 1875.99 1474.9 1877.13 1481.5C1878.47 1489.29 1879.38 1500.17 1879.73 1512.5C1880.09 1525.33 1879.87 1533.77 1879.05 1538.5C1878.37 1542.35 1876.88 1547.97 1875.73 1551C1874.58 1554.03 1871.98 1558.3 1869.96 1560.5C1867.94 1562.7 1863.18 1566.12 1859.39 1568.11C1855.6 1570.09 1849.58 1572.53 1846 1573.53C1841.96 1574.66 1836.09 1575.35 1830.5 1575.36C1825.02 1575.37 1818.96 1574.7 1815 1573.63C1811.42 1572.67 1804.9 1570.51 1800.5 1568.83C1796.1 1567.16 1788.45 1563.77 1783.5 1561.3C1778.55 1558.84 1771.46 1554.84 1767.75 1552.41C1764.04 1549.99 1760.85 1548.11 1760.66 1548.25C1760.48 1548.39 1758.95 1550.53 1757.28 1553C1755.61 1555.47 1751.71 1559.86 1748.62 1562.75C1745.53 1565.64 1740.19 1569.33 1736.75 1570.96C1733.31 1572.59 1727.58 1574.43 1724 1575.05C1717.86 1576.11 1717.21 1576.03 1712.25 1573.59C1709.24 1572.1 1705.56 1569.19 1703.62 1566.75C1701.76 1564.41 1699.06 1560.14 1697.62 1557.25C1696.18 1554.36 1694.28 1548.96 1693.4 1545.25C1692.22 1540.26 1691.93 1535.36 1692.27 1526.5C1692.6 1517.89 1693.36 1512.52 1694.96 1507.5C1696.19 1503.65 1697.48 1500.16 1697.84 1499.74C1698.2 1499.32 1703.22 1499.88 1709 1500.99C1714.78 1502.09 1719.5 1502.99 1719.5 1503C1719.5 1503 1719.5 1472.47 1719.5 1367.34L1692.5 1363.5L1690.91 1356C1690.04 1351.88 1689.08 1344.45 1688.21 1330.5L1691.85 1327.13C1693.86 1325.28 1698.65 1322.27 1702.5 1320.43C1706.35 1318.59 1713.78 1315.97 1719 1314.6C1724.22 1313.23 1732.1 1311.63 1736.5 1311.04C1740.9 1310.46 1747.2 1309.87 1756.5 1309.5L1749 1306.79C1744.88 1305.29 1736.33 1302.52 1730 1300.63C1723.67 1298.73 1713.1 1295.73 1706.5 1293.96C1699.9 1292.18 1691.13 1290.16 1687 1289.47C1682.88 1288.78 1675.45 1287.29 1670.5 1286.16C1665.55 1285.04 1657.9 1283.44 1653.5 1282.61C1649.1 1281.79 1642.8 1280.65 1639.5 1280.08C1636.2 1279.51 1628.1 1278.34 1621.5 1277.48C1614.9 1276.62 1606.13 1275.48 1602 1274.94C1597.88 1274.4 1585.28 1273.3 1574 1272.5C1562.51 1271.67 1539.44 1271.02 1521.5 1271.01C1502.3 1271 1481.3 1271.6 1469 1272.51C1457.72 1273.35 1443.1 1274.71 1436.5 1275.54C1429.9 1276.37 1419.78 1277.75 1414 1278.61C1408.22 1279.46 1395.63 1281.71 1386 1283.6C1376.38 1285.49 1363.1 1288.18 1356.5 1289.57C1349.9 1290.96 1342.47 1292.58 1340 1293.17C1337.53 1293.76 1327.85 1296.5 1318.5 1299.26C1309.15 1302.02 1295.2 1306.49 1287.5 1309.19C1279.8 1311.89 1270.8 1315.13 1267.5 1316.39C1264.2 1317.66 1257 1320.4 1251.5 1322.49C1246 1324.58 1235.88 1328.78 1229 1331.82C1222.13 1334.87 1207.28 1341.97 1196 1347.62C1184.72 1353.26 1170.1 1360.97 1163.5 1364.76C1156.9 1368.55 1144.29 1376.12 1135.48 1381.58C1126.68 1387.03 1118.27 1392.4 1116.8 1393.5C1115.34 1394.6 1111.17 1397.53 1107.55 1400C1103.93 1402.47 1095.91 1408.21 1089.73 1412.74C1083.55 1417.28 1074.94 1423.8 1070.6 1427.24C1066.25 1430.68 1060.62 1435.32 1058.1 1437.55C1055.57 1439.78 1049.79 1444.61 1045.25 1448.3C1040.71 1451.98 1037 1455.45 1037 1456C1037 1456.55 1035.91 1457.56 1034.59 1458.25C1033.26 1458.94 1025.04 1466.45 1016.34 1474.94C1007.63 1483.43 996.23 1494.92 991 1500.46C985.77 1506 976.1 1516.83 969.5 1524.52C962.9 1532.21 953.67 1543.4 949 1549.39C944.33 1555.37 936.26 1566.17 931.08 1573.39C925.91 1580.6 918.14 1591.79 913.83 1598.25C909.53 1604.71 905.21 1610.23 904.25 1610.51C903.29 1610.78 887.2 1610.56 868.5 1610.02C849.8 1609.47 818.75 1608.57 799.5 1608.01C780.25 1607.46 748.75 1606.56 729.5 1606.01C710.25 1605.47 685.5 1604.78 674.5 1604.49C663.5 1604.2 645.73 1603.74 635 1603.47C624.27 1603.21 605.38 1602.78 593 1602.53C580.63 1602.27 554.75 1601.6 535.5 1601.02C516.25 1600.45 486.32 1599.53 469 1598.99C451.68 1598.44 429.85 1597.76 420.5 1597.48C411.15 1597.2 387.3 1596.54 367.5 1596.01C347.7 1595.48 315.98 1594.58 297 1594.01C278.02 1593.44 247.65 1592.52 229.5 1591.96C211.35 1591.41 180.3 1590.52 160.5 1589.99C140.7 1589.46 109.65 1588.58 91.5 1588.03C73.35 1587.48 49.79 1586.69 39.15 1586.27C28.51 1585.85 19.62 1585.16 19.4 1584.75C19.18 1584.34 16.41 1583.96 7.5 1583.8L13.5 1582.62C16.8 1581.96 19.95 1581.14 20.5 1580.8C21.05 1580.45 27.57 1579.42 35 1578.52C42.42 1577.61 57.27 1575.78 68 1574.44C78.72 1573.1 89.75 1572.01 92.5 1572C95.25 1571.99 99.08 1571.55 101 1571.01C102.92 1570.47 107.2 1569.83 110.5 1569.59C113.8 1569.35 120.55 1568.69 125.5 1568.13C130.45 1567.56 142.15 1566.16 151.5 1565.02C160.85 1563.88 172.32 1562.49 177 1561.94C181.68 1561.38 189.1 1560.53 193.5 1560.03C197.9 1559.54 209.15 1558.24 218.5 1557.15C227.85 1556.05 246.75 1553.77 260.5 1552.1C274.25 1550.42 302.38 1546.97 323 1544.43C343.63 1541.89 364.55 1539.45 369.5 1539C374.45 1538.56 380.98 1537.92 384 1537.6C387.02 1537.27 393.21 1536.55 397.75 1536C402.29 1535.45 409.94 1534.53 414.75 1533.96C419.56 1533.39 427.32 1532.48 432 1531.93C436.68 1531.37 444.1 1530.51 448.5 1530C452.9 1529.49 460.55 1528.6 465.5 1528.01C470.45 1527.42 477.88 1526.51 482 1525.97C486.13 1525.44 503 1523.42 519.5 1521.47C536 1519.53 564.35 1516.15 582.5 1513.95C600.65 1511.76 619.1 1509.51 623.5 1508.96C627.9 1508.41 633.75 1507.77 636.5 1507.55C639.25 1507.32 643.75 1506.86 646.5 1506.52C649.25 1506.18 657.8 1505.22 665.5 1504.38C673.2 1503.54 682.88 1502.47 687 1501.99C691.13 1501.51 698.33 1500.66 703 1500.09C707.67 1499.53 715.55 1498.58 720.5 1497.98C725.45 1497.38 732.65 1496.5 736.5 1496.03C740.35 1495.56 755.42 1493.78 770 1492.07C784.58 1490.36 809.33 1487.39 825 1485.45C840.67 1483.52 862.73 1480.83 874 1479.48C885.27 1478.12 897.76 1476.56 901.75 1476.01C905.74 1475.45 911.59 1474.99 914.75 1474.98C917.91 1474.98 921.17 1474.55 922 1474.04C922.83 1473.53 923.27 1472.9 923 1472.64C922.73 1472.38 918.67 1471.42 914 1470.52C909.33 1469.62 902.8 1468.24 899.5 1467.46C896.2 1466.68 882.48 1463.77 869 1460.99C855.52 1458.21 837.75 1454.55 829.5 1452.85C821.25 1451.15 810.9 1449.2 806.5 1448.52C802.1 1447.83 796.92 1446.78 795 1446.19C793.08 1445.59 787.45 1444.4 782.5 1443.53C777.55 1442.67 766.98 1440.58 759 1438.91C751.02 1437.23 740.67 1435 736 1433.96C731.33 1432.91 719.4 1430.42 709.5 1428.42C699.6 1426.43 687.45 1423.93 682.5 1422.87C677.55 1421.82 671.02 1420.51 668 1419.97C664.98 1419.43 660.25 1418.52 657.5 1417.95C654.75 1417.38 651.15 1416.67 649.5 1416.37C647.85 1416.08 642 1414.98 636.5 1413.94C631 1412.9 621.1 1410.88 614.5 1409.47C607.9 1408.05 593.95 1405.1 583.5 1402.9C573.05 1400.7 561.13 1398.21 557 1397.36C552.88 1396.51 547.48 1395.43 545 1394.97C542.52 1394.51 534.42 1392.77 527 1391.12C519.58 1389.47 511.25 1387.55 503.5 1385.62L510 1384.72C514.05 1384.16 525.17 1384.24 539.5 1384.93C552.15 1385.54 569.25 1386.47 577.5 1386.99C585.75 1387.5 600.38 1388.41 610 1388.99C619.63 1389.57 643.7 1390.94 663.5 1392.02C683.3 1393.1 706.92 1394.44 716 1394.98C725.08 1395.53 740.6 1396.43 750.5 1396.99C760.4 1397.55 775.48 1398.46 784 1399.02C792.52 1399.58 809.4 1400.49 821.5 1401.05C833.6 1401.61 850.48 1402.5 859 1403.02C867.52 1403.54 883.27 1404.46 894 1405.05C904.73 1405.65 919.91 1406.44 927.75 1406.82C937.11 1407.27 941.88 1407.16 941.65 1406.5C941.46 1405.95 928.97 1400.64 913.9 1394.69C898.83 1388.75 884.02 1382.96 881 1381.82C877.98 1380.69 869.2 1377.14 861.5 1373.94C853.8 1370.75 840.52 1365.34 832 1361.93C823.48 1358.52 812.45 1354.25 807.5 1352.44C802.55 1350.63 792.88 1346.83 786 1343.99C779.13 1341.15 765.17 1335.45 755 1331.33C744.83 1327.22 731.77 1322.11 726 1319.98C720.23 1317.86 705.6 1312.02 693.5 1307.01C681.4 1302 666.1 1295.87 659.5 1293.38C652.9 1290.89 640.75 1286.12 632.5 1282.77C624.25 1279.42 614.8 1275.61 611.5 1274.3C608.2 1272.98 603.48 1271.05 601 1270C598.52 1268.95 589.98 1265.56 582 1262.47C574.02 1259.37 553.55 1251.19 536.5 1244.28C519.45 1237.37 503.25 1230.91 500.5 1229.93C497.75 1228.94 492.13 1226.82 488 1225.21C483.88 1223.6 465.43 1216.2 447 1208.76C428.57 1201.32 412.38 1194.91 411 1194.52C409.63 1194.12 406.7 1192.96 404.5 1191.93C402.3 1190.91 387.45 1184.83 371.5 1178.42C355.55 1172.02 338.45 1165.28 333.5 1163.46C328.55 1161.63 317.98 1157.46 310 1154.19C302.02 1150.92 291.68 1146.66 287 1144.72C282.32 1142.79 276.48 1140.51 274 1139.65C271.52 1138.8 265 1136.33 259.5 1134.17C254 1132.01 239.38 1126.11 227 1121.06C214.63 1116.01 199.78 1110.08 194 1107.89C188.22 1105.7 180.35 1102.59 176.5 1100.99C172.65 1099.39 165.68 1096.58 161 1094.73C156.32 1092.89 143.05 1087.64 131.5 1083.07C119.95 1078.49 108.47 1073.93 106 1072.94C103.53 1071.95 98.35 1069.99 94.5 1068.58C90.65 1067.18 86.39 1065.23 85.03 1064.26C83.67 1063.29 80.75 1061.71 74.5 1058.98L81 1059.59C84.58 1059.93 92 1061.31 97.5 1062.65C103 1064 109.75 1065.55 112.5 1066.09C115.25 1066.64 119.3 1067.48 121.5 1067.96C123.7 1068.44 129.55 1069.74 134.5 1070.85C139.45 1071.96 148.9 1074.22 155.5 1075.87C162.1 1077.52 175.82 1080.91 186 1083.39C196.18 1085.87 211.93 1089.71 221 1091.93C230.07 1094.14 239.53 1096.39 242 1096.92C244.47 1097.46 248.75 1098.37 251.5 1098.96C254.25 1099.55 258.98 1100.54 262 1101.16C265.02 1101.78 271.77 1103.4 277 1104.77C282.23 1106.13 287.18 1107.4 288 1107.58C288.82 1107.76 296.93 1109.71 306 1111.92C315.07 1114.12 329.25 1117.54 337.5 1119.5C345.75 1121.47 355.99 1123.96 360.25 1125.04C364.51 1126.12 369.13 1127 370.5 1127C371.88 1127 374.24 1127.61 375.75 1128.35C377.26 1129.09 381.43 1130.25 385 1130.92C388.57 1131.59 393.3 1132.54 395.5 1133.03C397.7 1133.52 406.02 1135.49 414 1137.41C421.98 1139.33 439.52 1143.6 453 1146.89C466.48 1150.18 486.73 1155.09 498 1157.8C509.27 1160.51 521.2 1163.29 524.5 1163.99C527.8 1164.68 535.23 1166.35 541 1167.69C546.77 1169.02 562.3 1172.77 575.5 1176C588.7 1179.24 606.02 1183.46 614 1185.38C621.98 1187.3 632.33 1189.76 637 1190.85C641.67 1191.94 647.08 1193.13 649 1193.49C650.92 1193.85 655.42 1194.81 659 1195.61C662.58 1196.41 667.98 1197.73 671 1198.55C674.02 1199.36 684.15 1201.84 693.5 1204.05C702.85 1206.27 716.8 1209.62 724.5 1211.5C732.2 1213.38 747.05 1216.98 757.5 1219.49C767.95 1222 778.3 1224.47 780.5 1224.98C782.7 1225.48 786.98 1226.42 790 1227.06C793.02 1227.69 801.8 1229.71 809.5 1231.54C817.2 1233.37 835.65 1237.83 850.5 1241.46C865.35 1245.09 881.33 1248.96 886 1250.06C890.67 1251.16 895.85 1252.46 897.5 1252.94C899.15 1253.42 902.75 1254.26 905.5 1254.82C908.25 1255.38 914.1 1256.6 918.5 1257.53C922.9 1258.46 933.7 1260.99 942.5 1263.15C951.3 1265.31 962.2 1268.07 966.72 1269.29C971.24 1270.5 975.29 1271.16 975.72 1270.75C976.15 1270.34 976.27 1269.84 976 1269.64C975.73 1269.45 971.67 1267.04 967 1264.29C962.33 1261.54 953.55 1256.23 947.5 1252.49C941.45 1248.74 933.58 1243.89 930 1241.69C926.42 1239.5 920.8 1235.92 917.5 1233.73C914.2 1231.55 910.6 1229.36 909.5 1228.87C908.4 1228.37 904.47 1226.07 900.78 1223.74C897.08 1221.41 890.78 1217.53 886.78 1215.11C882.77 1212.7 876.58 1208.84 873 1206.53C869.42 1204.22 858.85 1197.67 849.5 1191.97C840.15 1186.26 829.8 1179.91 826.5 1177.84C823.2 1175.78 816.9 1171.97 812.5 1169.39C808.1 1166.81 802.25 1163.25 799.5 1161.48C796.75 1159.72 787.98 1154.22 780 1149.28C772.02 1144.33 760.1 1137.01 753.5 1133.01C746.9 1129 733.4 1120.71 723.5 1114.57C713.6 1108.44 701.45 1101 696.5 1098.05C691.55 1095.1 683.23 1089.92 678 1086.53C672.77 1083.14 664 1077.75 658.5 1074.55C653 1071.36 644.45 1066.15 639.5 1062.98C634.55 1059.82 627.84 1055.49 624.59 1053.36C621.33 1051.24 617.49 1048.83 616.03 1048C614.58 1047.17 612.29 1045.72 610.95 1044.77C609.6 1043.83 608.73 1042.83 609 1042.57C609.27 1042.31 611.86 1043.19 614.75 1044.54C617.64 1045.9 620.9 1047 622 1047C623.1 1047 634.24 1051.51 646.75 1057.03C659.26 1062.54 672.42 1068.39 676 1070.01C679.58 1071.64 682.84 1072.97 683.25 1072.98C683.66 1072.99 688.61 1074.99 694.25 1077.43C699.89 1079.86 709.67 1084.16 716 1086.98C722.33 1089.81 732.45 1094.15 738.5 1096.65C744.55 1099.14 752.42 1102.44 756 1103.99C759.58 1105.53 773.3 1111.51 786.5 1117.28C799.7 1123.04 814.55 1129.44 819.5 1131.5C824.45 1133.55 833.45 1137.38 839.5 1140C845.55 1142.62 857.7 1147.91 866.5 1151.76C875.3 1155.62 886.55 1160.45 891.5 1162.51C896.45 1164.56 915.58 1172.76 934 1180.73C952.42 1188.7 969.98 1196.26 973 1197.54C976.02 1198.81 985.25 1202.77 993.5 1206.35C1001.75 1209.93 1009.74 1213.34 1011.25 1213.93C1012.76 1214.52 1014.2 1214.66 1014.44 1214.25C1014.68 1213.84 1010.09 1209.22 1004.23 1204C998.37 1198.78 990.41 1191.55 986.54 1187.93C982.67 1184.32 975.23 1177.65 970 1173.11C964.77 1168.56 958.7 1163.23 956.5 1161.26C954.3 1159.29 948.42 1154.03 943.43 1149.59C938.44 1145.14 926.13 1134.08 916.07 1125C906.02 1115.92 895.48 1106.55 892.65 1104.16C889.82 1101.77 883.23 1095.89 878 1091.1C872.77 1086.3 857.92 1073.03 845 1061.6C832.08 1050.17 819.92 1039.43 818 1037.72C816.08 1036.01 809.77 1030.38 804 1025.21C798.23 1020.04 793.05 1015.29 792.49 1014.66C791.93 1014.02 788.11 1010.58 783.99 1007.02C779.87 1003.45 771.33 995.86 765 990.15C758.67 984.44 749.9 976.52 745.5 972.55C741.1 968.58 724.67 953.96 709 940.07C693.33 926.19 676.93 911.6 672.57 907.66C668.21 903.72 663.48 899.4 662.07 898.05C660.66 896.7 652.38 889.28 643.69 881.55C634.99 873.82 622.8 863 616.6 857.5C610.41 852 593.29 836.7 578.58 823.5C563.87 810.3 549.28 797.31 546.17 794.63C543.05 791.95 534.42 784.25 527 777.53C519.58 770.8 509.28 761.51 504.12 756.9C498.96 752.28 490.16 744.45 484.55 739.5C478.94 734.55 464.72 721.95 452.95 711.5C441.18 701.05 428.16 689.34 424.02 685.48C419.88 681.61 412 674.59 406.5 669.88C401 665.16 390.86 656.17 383.96 649.9C377.06 643.63 365.6 633.33 358.49 627C351.39 620.67 342.63 612.83 339.04 609.57C335.44 606.31 329.01 600.34 324.75 596.32C320.49 592.29 317.56 589 318.25 588.99C318.94 588.99 320.4 589.6 321.5 590.35C322.6 591.1 326.2 593.2 329.5 595.02C332.8 596.84 344.73 604.49 356 612.01C367.27 619.54 387.98 633.26 402 642.51C416.02 651.75 438.75 666.74 452.5 675.81C466.25 684.88 484.6 697.07 493.29 702.9C501.97 708.73 510.56 714.4 512.38 715.5C514.2 716.6 517.34 718.74 519.35 720.25C521.36 721.76 523.23 723 523.5 723C523.77 723 533.92 729.64 546.05 737.75C558.18 745.86 569.6 753.4 571.43 754.5C573.25 755.6 576.94 757.94 579.62 759.69C582.31 761.45 592.6 768.32 602.5 774.96C612.4 781.6 627.48 791.6 636 797.18C644.52 802.76 666.8 817.46 685.5 829.83C704.2 842.21 734.13 862 752 873.82C769.88 885.64 788.25 897.83 792.84 900.91C797.42 903.98 802.15 907.14 803.34 907.92C804.53 908.7 816.52 916.61 830 925.49C843.48 934.38 866.42 949.5 881 959.09C895.58 968.68 917.71 983.27 930.19 991.51C942.67 999.76 957.36 1009.42 962.83 1013C968.3 1016.58 979.47 1023.96 987.64 1029.41C995.81 1034.87 1013.75 1046.75 1027.5 1055.81C1041.25 1064.88 1060.49 1077.63 1070.25 1084.15C1080.01 1090.67 1088.45 1096 1089 1096C1089.55 1096 1090.2 1095.66 1090.45 1095.25C1090.7 1094.84 1088.77 1091.8 1086.16 1088.5C1083.55 1085.2 1077.13 1077.1 1071.89 1070.5C1066.65 1063.9 1057.89 1052.91 1052.43 1046.07C1046.97 1039.24 1039.8 1030.24 1036.49 1026.07C1033.19 1021.91 1029.82 1017.53 1028.99 1016.36C1028.17 1015.18 1023.9 1009.84 1019.5 1004.5C1015.1 999.16 1008.8 991.28 1005.5 986.99C1002.2 982.69 989.6 966.73 977.5 951.5C965.4 936.27 954.15 922.08 952.5 919.96C950.85 917.85 945.7 911.25 941.05 905.31C936.41 899.36 930.11 891.49 927.05 887.81C924 884.13 918.13 876.78 914 871.48C909.88 866.18 903.23 857.71 899.24 852.67C895.24 847.63 889.31 840.13 886.05 836C882.8 831.88 872.8 819.27 863.83 808C854.86 796.73 846.62 786.27 845.51 784.77C844.41 783.27 839.56 776.85 834.75 770.52C829.94 764.18 826.23 758.66 826.52 758.25C826.81 757.84 828.95 759.34 831.27 761.59C833.6 763.83 836.92 766.76 838.65 768.09C840.38 769.41 851.19 779.5 862.67 790.5C874.16 801.5 891.66 818.15 901.57 827.5C911.48 836.85 926.09 850.58 934.03 858C941.98 865.42 956.04 878.7 965.3 887.5C974.55 896.3 986.03 907.05 990.81 911.38C995.59 915.71 1004.91 924.49 1011.51 930.88C1018.12 937.27 1030.49 949.02 1039 957C1047.51 964.98 1058.53 975.32 1063.49 979.99C1068.44 984.66 1077.45 993.21 1083.5 999C1089.55 1004.79 1106.09 1020.43 1120.25 1033.76C1134.41 1047.09 1146.45 1058 1147 1058C1147.55 1058 1148 1057.78 1148 1057.5C1148 1057.22 1144.22 1049.91 1139.6 1041.25C1134.99 1032.59 1128.4 1020.33 1124.96 1014C1121.52 1007.67 1115.79 996.88 1112.23 990C1108.67 983.13 1103.85 974.13 1101.52 970C1099.2 965.88 1093.57 955.52 1089.02 947C1084.47 938.48 1076.36 923.4 1071.01 913.5C1065.65 903.6 1055.75 885.15 1049 872.5C1042.24 859.85 1030.76 838.48 1023.49 825C1016.21 811.52 1005.16 791.05 998.94 779.5C992.72 767.95 984.2 751.98 980.02 744C975.83 736.02 967.53 720.5 961.58 709.5C955.63 698.5 946.69 682.08 941.71 673C936.74 663.92 929.53 650.42 925.68 643C921.84 635.58 915.89 624.55 912.47 618.5C909.05 612.45 903.88 602.77 900.99 597C898.1 591.23 892.92 581.55 889.49 575.5C886.07 569.45 878.86 556.17 873.48 546C868.1 535.83 860.25 521.2 856.03 513.5C851.81 505.8 847.86 498.6 847.25 497.5C846.63 496.4 845.51 494.15 844.75 492.5C843.99 490.85 838.5 480.5 832.55 469.5C826.6 458.5 817.2 441.18 811.67 431C806.14 420.82 797.5 404.63 792.47 395C787.44 385.38 780.4 372.32 776.83 366C773.26 359.68 768.4 350.68 766.03 346C763.67 341.32 758.13 330.98 753.73 323C749.34 315.02 744 305.46 741.87 301.75C739.74 298.04 738 294.66 737.99 294.25C737.99 293.84 737.4 292.38 736.68 291C735.96 289.63 731.29 281.07 726.32 272C721.34 262.93 715.63 252.24 713.63 248.25C711.64 244.26 710.23 241 710.5 241C710.77 241 709.65 238.75 708 236C706.35 233.25 705.12 230.21 705.27 229.25C705.45 228.13 706.71 229.57 708.77 233.25C710.55 236.41 712.67 239 713.5 239C714.33 239 714.99 239.34 714.98 239.75C714.97 240.16 718.01 244.59 721.73 249.58C725.45 254.58 731.42 262.61 735 267.42C738.58 272.23 747.58 284.35 755 294.35C762.42 304.35 775 321.3 782.95 332.01C790.9 342.73 803.07 359.15 810.01 368.5C816.94 377.85 827.78 392.48 834.1 401C840.42 409.52 846.66 418.07 847.97 420C849.28 421.93 852.3 425.98 854.67 429C857.03 432.02 861.91 438.55 865.49 443.5C869.08 448.45 874.06 455.2 876.56 458.5C879.05 461.8 883.57 467.88 886.6 472C889.62 476.13 893.64 481.52 895.52 484C897.4 486.48 905.14 496.77 912.72 506.88C920.3 516.99 927.89 527.34 929.58 529.88C931.27 532.42 934.56 536.98 936.89 540C939.21 543.02 944.82 550.45 949.35 556.5C953.88 562.55 959.03 569.52 960.79 572C962.55 574.48 966.21 579.42 968.92 583C971.63 586.58 975.48 591.75 977.47 594.5C979.46 597.25 984.78 604.46 989.29 610.52C993.81 616.59 1001.3 626.71 1005.96 633.02C1010.61 639.34 1019.41 651.25 1025.51 659.5C1031.62 667.75 1039.97 678.97 1044.06 684.44C1048.15 689.91 1053.19 696.66 1055.25 699.44C1057.31 702.22 1059.77 705.63 1060.71 707C1061.66 708.38 1066.28 714.57 1070.97 720.77C1075.66 726.97 1080.75 733.72 1082.28 735.77C1083.8 737.82 1086.9 742.2 1089.15 745.5C1091.4 748.8 1094.33 752.85 1095.66 754.5C1096.99 756.15 1099.75 759.62 1101.79 762.2C1103.83 764.79 1108.42 771 1112 776C1115.58 781.01 1120.75 787.97 1123.5 791.48C1126.25 794.99 1129.53 799.36 1130.78 801.18C1132.04 803.01 1136.09 808.6 1139.78 813.61C1143.48 818.61 1150.55 828.21 1155.5 834.92C1160.45 841.63 1169.75 854.19 1176.17 862.81C1182.59 871.44 1189.15 880.3 1190.75 882.5C1192.35 884.7 1199.51 894.38 1206.66 904C1213.8 913.63 1222.99 925.93 1227.08 931.34C1231.16 936.75 1236.08 943.34 1238 945.98C1239.92 948.62 1245.33 956.03 1250 962.43C1254.67 968.84 1258.95 973.89 1259.5 973.67C1260.05 973.44 1260.42 972.86 1260.31 972.37C1260.21 971.89 1257.36 963.4 1253.97 953.5C1250.58 943.6 1246.97 932.58 1245.93 929C1244.89 925.42 1233.28 890.55 1220.13 851.5C1206.97 812.45 1195.76 779.15 1195.22 777.5C1194.67 775.85 1187.62 754.48 1179.55 730C1171.48 705.52 1164.52 684.6 1164.08 683.5C1163.64 682.4 1158.45 666.88 1152.54 649C1146.63 631.13 1141.17 615.04 1140.4 613.25C1139.63 611.46 1139 609.44 1139.01 608.75C1139.01 608.06 1136.96 601.42 1134.46 594C1131.95 586.58 1129.71 579.15 1129.47 577.5C1129.23 575.85 1128.55 572.92 1127.95 571C1127.35 569.08 1127.11 567.39 1127.43 567.25C1127.74 567.11 1128.96 568.91 1130.13 571.25C1131.31 573.59 1132.62 575.73 1133.05 576C1133.48 576.27 1147.64 603.95 1164.52 637.5C1181.39 671.05 1221.76 751.38 1254.21 816C1286.67 880.63 1316.1 939.01 1319.61 945.75C1323.13 952.49 1326.11 958 1326.25 957.99C1326.39 957.99 1325.96 952.93 1325.3 946.74C1324.63 940.56 1323.15 929.42 1322.01 922C1320.86 914.58 1319.49 905.35 1318.97 901.5C1318.44 897.65 1317.58 891.8 1317.05 888.5C1316.52 885.2 1314.69 873.05 1312.99 861.5C1311.28 849.95 1309.5 838.02 1309.03 835C1308.56 831.98 1307.45 824.77 1306.57 819C1305.69 813.23 1304.29 804 1303.46 798.5C1302.62 793 1301.27 783.1 1300.44 776.5C1299.62 769.9 1298.54 761.8 1298.05 758.5C1297.55 755.2 1296.67 749.13 1296.09 745C1295.52 740.88 1294.14 731.65 1293.03 724.5C1291.92 717.35 1290.1 704.98 1288.97 697C1287.84 689.02 1285.81 675.52 1284.46 667C1283.12 658.48 1281.54 648.35 1280.97 644.5C1280.39 640.65 1278.79 630.08 1277.4 621C1276.01 611.92 1274.24 599.33 1273.45 593C1272.67 586.67 1271.17 575.2 1270.11 567.5C1269.06 559.8 1267.51 549.23 1266.67 544C1265.83 538.77 1264.88 532.7 1264.56 530.5C1264.25 528.3 1263.06 520.2 1261.92 512.5C1260.78 504.8 1259.47 496.02 1259.01 493C1258.54 489.98 1256.32 475.35 1254.07 460.5C1251.82 445.65 1249.31 428.55 1248.48 422.5C1247.65 416.45 1246.3 406.55 1245.46 400.5C1244.63 394.45 1243.49 386.13 1242.93 382C1242.37 377.88 1241.04 368.88 1239.97 362C1238.91 355.13 1237.58 346.35 1237.03 342.5C1236.49 338.65 1235.14 329.65 1234.05 322.5C1232.96 315.35 1229.84 294.65 1227.11 276.5C1224.38 258.35 1221.81 241.03 1221.39 238C1220.97 234.97 1220.71 231.94 1220.82 231.25C1220.92 230.56 1220.54 228.09 1219.98 225.75C1219.42 223.41 1218.79 219.7 1218.58 217.5C1218.37 215.3 1217.71 210.13 1217.11 206C1216.51 201.88 1215.59 195.8 1215.08 192.5C1214.57 189.2 1213.18 179.97 1211.99 172C1210.81 164.03 1209.45 154.8 1208.98 151.5C1208.51 148.2 1206.98 137.85 1205.6 128.5C1204.21 119.15 1201.92 104.08 1200.51 95C1199.1 85.92 1197.06 72.2 1195.99 64.5C1194.91 56.8 1193.84 47.35 1193.61 43.5C1193.38 39.65 1192.92 34.02 1192.59 31C1192.01 25.65 1192.03 25.58 1193.45 28.5C1194.25 30.15 1194.93 32.06 1194.95 32.75C1194.98 33.44 1195.86 36.14 1196.92 38.75C1197.97 41.36 1202.52 55.65 1207.02 70.5C1211.52 85.35 1216.96 103.13 1219.12 110C1221.27 116.88 1223.03 123.17 1223.01 124C1223 124.83 1224.95 131.8 1227.35 139.5C1229.75 147.2 1233.41 159.13 1235.48 166C1237.56 172.88 1240.77 183.22 1242.63 189C1244.48 194.78 1246 199.95 1246.01 200.5C1246.01 201.05 1247.1 205.1 1248.42 209.5C1249.75 213.9 1253.1 225.15 1255.87 234.5C1258.64 243.85 1264.11 262.07 1268.01 275C1271.92 287.93 1275.74 300.75 1276.51 303.5C1277.29 306.25 1279.09 312.55 1280.53 317.5C1281.96 322.45 1285.2 333.25 1287.73 341.5C1290.25 349.75 1293.53 360.32 1295.01 365C1296.49 369.68 1298.49 376.43 1299.46 380C1300.43 383.57 1302.28 390.1 1303.57 394.5C1304.85 398.9 1310.92 418.93 1317.04 439C1323.17 459.07 1328.81 478.43 1329.59 482C1330.37 485.57 1332.59 493.45 1334.54 499.5C1336.49 505.55 1339.41 514.77 1341.03 520C1342.65 525.23 1346.19 536.92 1348.89 546C1351.6 555.08 1355.01 566.77 1356.48 572C1357.95 577.23 1362.94 594.1 1367.58 609.5C1372.22 624.9 1377.54 642.23 1379.41 648C1381.27 653.77 1383.09 660.08 1383.45 662C1383.81 663.92 1385.41 669.77 1387.01 675C1388.6 680.23 1392.23 692.15 1395.07 701.5C1397.91 710.85 1401.72 723.23 1403.54 729C1405.36 734.77 1407.83 743.33 1409.02 748C1410.21 752.67 1414.8 768.2 1419.21 782.5C1423.63 796.8 1429.25 815.02 1431.71 823C1434.17 830.98 1436.75 839.98 1437.45 843C1438.14 846.02 1440.13 853.23 1441.89 859C1443.64 864.77 1447.13 876.25 1449.64 884.5C1452.15 892.75 1455.67 904 1460.69 919.5L1461.37 890.5C1461.74 874.55 1462.48 846.2 1463 827.5C1463.53 808.8 1464.42 775.73 1465 754C1465.57 732.27 1466.47 698.75 1467 679.5C1467.53 660.25 1468.43 625.6 1469.01 602.5C1469.59 579.4 1470.5 546.21 1471.03 528.75C1471.71 506.5 1472.37 496.43 1473.25 495.08C1474.44 493.24 1474.56 493.28 1475.77 495.83C1476.46 497.3 1477.7 504.13 1478.52 511C1479.34 517.88 1482.01 539.7 1484.46 559.5C1486.91 579.3 1489.18 598.88 1489.5 603C1489.82 607.13 1490.5 613.88 1491.01 618C1491.52 622.13 1492.4 629.33 1492.96 634C1493.52 638.67 1494.45 646.55 1495.02 651.5C1495.59 656.45 1496.5 663.88 1497.04 668C1497.58 672.13 1500.02 691.92 1502.46 712C1504.91 732.08 1507.4 753 1507.99 758.5C1508.58 764 1509.49 771.65 1510.02 775.5C1510.54 779.35 1511.86 790.15 1512.93 799.5C1514.01 808.85 1515.38 821.23 1515.97 827C1516.56 832.77 1517.46 840.65 1517.96 844.5C1518.47 848.35 1519.33 855.1 1519.89 859.5C1520.44 863.9 1521.39 871.77 1521.99 877C1522.59 882.23 1523.49 889.65 1524 893.5C1524.5 897.35 1525.45 905.45 1526.12 911.5C1526.78 917.55 1527.59 923.06 1527.91 923.74C1528.24 924.43 1529.04 922.85 1529.69 920.24C1530.35 917.63 1531.83 911 1532.98 905.5C1534.14 900 1535.48 893.7 1535.96 891.5C1536.44 889.3 1537.3 885.02 1537.86 882C1538.42 878.98 1539.82 871.33 1540.98 865C1542.13 858.67 1543.74 850.58 1544.54 847C1545.34 843.42 1547.38 833.98 1549.08 826C1550.77 818.02 1553.24 806.1 1554.57 799.5C1555.89 792.9 1558.13 782.1 1559.54 775.5C1560.96 768.9 1562.58 760.58 1563.15 757C1563.72 753.42 1564.56 748.92 1565.02 747C1565.48 745.08 1567.74 734.27 1570.04 723C1572.34 711.73 1575.52 696.42 1577.11 689C1578.7 681.58 1580.88 671 1581.97 665.5C1583.06 660 1584.88 651.23 1586.01 646C1587.14 640.77 1588.68 633.35 1589.44 629.5C1590.2 625.65 1591.58 618.67 1592.52 614C1593.45 609.33 1594.37 604.38 1594.57 603C1594.77 601.63 1595.87 596.23 1597.02 591C1598.17 585.77 1599.5 579.25 1599.97 576.5C1600.44 573.75 1601.57 568.35 1602.47 564.5C1603.37 560.65 1604.74 554.35 1605.51 550.5C1606.28 546.65 1608.76 534.73 1611.01 524C1613.26 513.27 1615.55 501.57 1616.1 498C1616.66 494.43 1617.59 489.48 1618.18 487C1618.77 484.52 1619.83 479.35 1620.52 475.5C1621.22 471.65 1622.48 465.57 1623.32 462C1624.16 458.43 1625.56 451.9 1626.42 447.5C1627.28 443.1 1629.37 432.98 1631.07 425C1632.76 417.02 1635.46 404.2 1637.07 396.5C1638.68 388.8 1641.15 376.65 1642.55 369.5C1643.95 362.35 1645.49 354.93 1645.97 353C1646.46 351.07 1647.53 345.45 1648.36 340.5C1649.19 335.55 1651.52 323.85 1653.54 314.5C1655.56 305.15 1658.47 291.43 1660.01 284C1661.55 276.57 1664.27 263.52 1666.05 255C1667.83 246.47 1669.64 237.25 1670.08 234.5C1670.51 231.75 1671.37 227.47 1671.99 225C1672.61 222.53 1673.52 218.03 1674.02 215C1674.53 211.97 1675.36 207.47 1675.88 205C1676.4 202.53 1677.52 197.13 1678.37 193C1679.23 188.88 1681.79 176.72 1684.08 166C1686.37 155.28 1688.58 144.7 1689 142.5C1689.42 140.3 1690.71 134 1691.87 128.5C1693.03 123 1694.65 115.35 1695.49 111.5C1696.32 107.65 1697.01 103.38 1697.01 102C1697.02 100.63 1697.46 98.15 1697.98 96.5C1698.51 94.85 1700.73 84.5 1702.92 73.5C1705.11 62.5 1708.29 46.98 1709.99 39C1711.69 31.02 1713.52 22.25 1714.06 19.5C1714.6 16.75 1715.48 14.39 1716.02 14.25C1716.56 14.11 1717 12.88 1717 11.5C1717 10.13 1717.33 8.21 1717.74 7.25C1718.22 6.09 1718.71 7.53 1719.19 11.5ZM1357 1310.1C1366.63 1310.05 1380.58 1310.46 1388 1311.03C1395.42 1311.59 1404.42 1312.55 1408 1313.16C1413.08 1314.02 1416.03 1315.31 1421.5 1319.07C1425.35 1321.71 1431.31 1326.6 1434.75 1329.93C1438.19 1333.27 1441.67 1337.01 1442.48 1338.25C1443.72 1340.14 1443.8 1342.28 1442.96 1351.5C1442.42 1357.55 1441.26 1366.1 1440.4 1370.5C1439.54 1374.9 1437.92 1381.65 1436.8 1385.5C1435.68 1389.35 1433.25 1395.76 1431.38 1399.75C1428.92 1405.03 1427.18 1407.41 1425 1408.5C1423.35 1409.33 1418.71 1410.49 1414.68 1411.09C1410.65 1411.69 1404.25 1411.87 1400.43 1411.5C1396.62 1411.13 1391.59 1409.97 1389.25 1408.91C1386.91 1407.86 1384.99 1406.44 1384.98 1405.75C1384.97 1405.06 1383.84 1397.3 1382.47 1388.5C1381.1 1379.7 1379.87 1372.39 1379.74 1372.25C1379.61 1372.11 1377.7 1371.54 1375.5 1370.99C1373.3 1370.44 1367 1369.32 1361.5 1368.51C1356 1367.7 1349.81 1367.03 1347.75 1367.02C1344.9 1367 1343.14 1367.78 1340.43 1370.25C1338.24 1372.24 1336.45 1375.06 1335.82 1377.5C1335.26 1379.7 1334.79 1383.97 1334.78 1387C1334.76 1390.5 1335.48 1393.95 1336.74 1396.5C1337.83 1398.7 1340.92 1402.4 1343.61 1404.73C1346.3 1407.05 1355.7 1412.63 1364.5 1417.13C1373.3 1421.63 1384.1 1427.35 1388.5 1429.83C1392.9 1432.32 1400.78 1437.14 1406 1440.55C1411.25 1443.97 1418.43 1449.83 1422.03 1453.62C1425.62 1457.41 1430.41 1463.65 1432.68 1467.5C1434.94 1471.35 1437.5 1476.75 1438.36 1479.5C1439.23 1482.25 1440.39 1487.42 1440.96 1491C1441.52 1494.58 1441.99 1499.53 1442 1502C1442.01 1504.47 1441.34 1510.44 1440.51 1515.25C1439.68 1520.06 1437.74 1526.81 1436.2 1530.25C1434.65 1533.69 1431.84 1538.74 1429.95 1541.49C1428.05 1544.23 1424.25 1548.71 1421.5 1551.43C1418.75 1554.15 1413.13 1558.56 1409 1561.23C1404.68 1564.02 1397.69 1567.32 1392.5 1569.03C1387.55 1570.66 1378.78 1572.7 1373 1573.58C1367.22 1574.45 1355.97 1575.2 1348 1575.23C1338.5 1575.28 1330.23 1574.72 1324 1573.61C1318.78 1572.68 1311.35 1570.75 1307.5 1569.33C1303.65 1567.92 1298.47 1565.62 1296 1564.24C1293.53 1562.86 1289.09 1559.88 1286.15 1557.62C1283.2 1555.35 1278.93 1551.03 1276.66 1548C1272.56 1542.55 1272.53 1542.42 1272.69 1534.5C1272.79 1529.72 1273.67 1523.89 1274.88 1520C1275.99 1516.42 1278.73 1510.69 1280.95 1507.25C1283.18 1503.81 1285.34 1500.99 1285.75 1500.98C1286.16 1500.97 1293.92 1503.93 1303 1507.55C1312.08 1511.17 1323.78 1515.41 1329 1516.97C1334.22 1518.53 1343.22 1520.52 1349 1521.4C1354.78 1522.27 1361.97 1522.97 1365 1522.97C1368.03 1522.96 1372.3 1522.53 1374.5 1522.02C1376.7 1521.5 1379.07 1520.28 1379.77 1519.29C1380.46 1518.31 1381.02 1515.03 1381.01 1512C1381 1508.28 1380.34 1505.45 1379 1503.25C1377.9 1501.46 1374.86 1498.44 1372.25 1496.53C1369.64 1494.63 1359.85 1489.17 1350.5 1484.4C1341.15 1479.63 1329.9 1473.69 1325.5 1471.18C1321.1 1468.68 1313.9 1464.28 1309.5 1461.41C1305.1 1458.54 1298.35 1453.1 1294.5 1449.32C1290.65 1445.54 1285.26 1439.08 1282.52 1434.97C1279.78 1430.86 1276.47 1424.8 1275.15 1421.5C1273.84 1418.2 1272.14 1412.24 1271.38 1408.25C1270.62 1404.26 1269.99 1395.94 1269.99 1389.75C1269.98 1383.56 1270.69 1374.67 1271.57 1370C1272.45 1365.33 1274.46 1358.13 1276.04 1354C1277.62 1349.88 1281.11 1343.35 1283.79 1339.5C1286.47 1335.65 1291.1 1330.36 1294.08 1327.74C1297.06 1325.12 1302.65 1321.42 1306.5 1319.52C1310.35 1317.61 1315.97 1315.31 1319 1314.4C1322.03 1313.5 1327.88 1312.18 1332 1311.48C1336.13 1310.78 1347.38 1310.16 1357 1310.1ZM1572 1310.52C1585.94 1310.77 1592.59 1311.34 1599 1312.84C1603.67 1313.93 1610.65 1316 1614.5 1317.46C1618.35 1318.91 1623.53 1321.27 1626 1322.69C1628.47 1324.12 1633.42 1327.62 1637 1330.47C1640.58 1333.32 1645.82 1338.54 1648.65 1342.07C1651.48 1345.61 1655.6 1351.88 1657.81 1356C1660.01 1360.13 1663.17 1367.78 1664.83 1373C1666.48 1378.22 1668.74 1387.22 1669.85 1393C1670.96 1398.78 1672.41 1409.35 1673.08 1416.5C1673.84 1424.69 1674.07 1437.45 1673.72 1451C1673.4 1463.08 1672.47 1476.44 1671.6 1481.5C1670.75 1486.45 1669.11 1494.1 1667.95 1498.5C1666.79 1502.9 1664.42 1510.33 1662.67 1515C1660.92 1519.67 1657.47 1527.04 1654.99 1531.36C1652.52 1535.69 1648.14 1542.1 1645.25 1545.61C1642.36 1549.13 1637.41 1554.04 1634.25 1556.54C1631.09 1559.04 1624.9 1562.86 1620.5 1565.03C1616.1 1567.21 1608.22 1570.1 1603 1571.47C1597.78 1572.84 1588.33 1574.51 1582 1575.18C1573.06 1576.13 1567.39 1576.14 1556.5 1575.23C1548.8 1574.58 1538 1572.92 1532.5 1571.54C1527 1570.16 1518.9 1567.25 1514.5 1565.08C1510.1 1562.9 1503.58 1558.71 1500 1555.76C1496.42 1552.81 1491.14 1547.27 1488.25 1543.45C1485.36 1539.63 1481.23 1533.13 1479.07 1529C1476.9 1524.88 1473.55 1516.78 1471.62 1511C1469.69 1505.22 1467.2 1496 1466.09 1490.5C1464.98 1485 1463.55 1475.1 1462.9 1468.5C1462.18 1461.08 1461.94 1448.49 1462.29 1435.5C1462.68 1420.95 1463.49 1410.82 1464.94 1402.5C1466.09 1395.9 1468.18 1386.45 1469.59 1381.5C1470.99 1376.55 1474.05 1368.45 1476.38 1363.5C1478.71 1358.55 1482.43 1351.8 1484.65 1348.5C1486.87 1345.2 1491.79 1339.42 1495.59 1335.65C1499.39 1331.88 1506.1 1326.62 1510.5 1323.95C1514.9 1321.29 1521.65 1318.02 1525.5 1316.69C1529.35 1315.36 1535.88 1313.54 1540 1312.66C1544.13 1311.77 1548.85 1310.85 1550.5 1310.61C1552.15 1310.37 1561.83 1310.33 1572 1310.52ZM1548.75 1373.43C1545.39 1373.94 1544.75 1374.54 1542.57 1379.25C1541.23 1382.14 1539.43 1387.99 1538.57 1392.25C1537.71 1396.51 1536.48 1407.09 1535.84 1415.75C1534.95 1427.8 1534.95 1436.79 1535.86 1454C1536.51 1466.38 1537.71 1481.45 1538.51 1487.5C1539.31 1493.55 1540.7 1502.1 1541.58 1506.5C1542.47 1510.9 1543.94 1515.29 1544.85 1516.26C1545.76 1517.23 1548.75 1518.52 1551.5 1519.11C1554.25 1519.71 1562.8 1520.44 1570.5 1520.74C1578.2 1521.04 1586.08 1521.01 1588 1520.68C1591.28 1520.1 1591.64 1519.65 1593.83 1513.28C1595.11 1509.55 1596.88 1501.55 1597.76 1495.5C1598.98 1487.19 1599.37 1476.54 1599.39 1452C1599.4 1427.48 1599 1416.55 1597.78 1407.5C1596.88 1400.9 1595.36 1392.13 1594.4 1388C1593.44 1383.88 1591.83 1379.71 1590.82 1378.75C1589.82 1377.79 1586.64 1376.33 1583.75 1375.52C1580.86 1374.7 1575.35 1373.59 1571.5 1373.04C1567.65 1372.49 1562.47 1372.08 1560 1372.14C1557.53 1372.19 1554.83 1372.37 1554 1372.55C1553.17 1372.72 1550.81 1373.12 1548.75 1373.43ZM1026.25 1726.13C1040.41 1726.06 1056.39 1726.48 1061.75 1727.06C1067.11 1727.64 1074.65 1728.76 1078.5 1729.55C1082.35 1730.33 1088.88 1732.64 1093 1734.69C1098.09 1737.21 1102.61 1740.51 1107.06 1744.95C1111.11 1749 1114.64 1753.7 1116.31 1757.25C1117.79 1760.41 1119.76 1766.04 1120.69 1769.75C1121.96 1774.81 1122.38 1780.77 1122.36 1793.5C1122.34 1803.43 1121.61 1816.33 1120.59 1824.5C1119.64 1832.2 1117.74 1844.58 1116.39 1852C1115.03 1859.42 1112.55 1871.35 1110.87 1878.5C1109.2 1885.65 1106.03 1898.25 1103.84 1906.5C1101.64 1914.75 1098.26 1926.45 1096.33 1932.5C1094.39 1938.55 1090.38 1948.56 1087.41 1954.75C1082.72 1964.49 1080.9 1967.12 1073.75 1974.38C1068.77 1979.45 1063.42 1983.8 1060.25 1985.38C1057.36 1986.82 1052.64 1988.47 1049.75 1989.03C1046.25 1989.72 1041.83 1989.75 1036.5 1989.11C1032.1 1988.58 1024.67 1987.21 1020 1986.05C1015.33 1984.9 1008.13 1982.37 1004 1980.43C999.88 1978.48 993.01 1974.55 980.99 1966.5L975.74 1971.59C972.86 1974.39 967.58 1978.58 964 1980.88C960.42 1983.19 954.13 1986.36 950 1987.93C945.88 1989.5 940.48 1991.08 938 1991.44C934.27 1991.99 932.81 1991.69 929.5 1989.68C927.3 1988.34 923.1 1984.61 920.18 1981.38C916.94 1977.8 914.05 1973.35 912.81 1970C911.68 1966.97 910.28 1961.35 909.68 1957.5C908.85 1952.15 908.91 1948.62 909.92 1942.5C910.64 1938.1 911.4 1934.05 911.59 1933.5C911.79 1932.95 913.88 1931.96 916.23 1931.3C918.58 1930.64 924.71 1929.52 939.2 1927.5L938.59 1922.5C938.26 1919.75 937.32 1908.95 936.51 1898.5C935.7 1888.05 934.36 1867.58 933.54 1853C932.72 1838.42 931.7 1817.18 931.27 1805.79C930.54 1786.24 930.39 1785.06 928.5 1784.62C927.4 1784.36 922.05 1783.55 916.62 1782.82C907.57 1781.61 906.66 1781.29 905.79 1779C905.26 1777.63 904.2 1773.24 903.42 1769.25C902.64 1765.26 902 1757.5 902 1752C902 1745.35 902.42 1741.57 903.25 1740.72C903.94 1740.02 906.75 1738.67 909.5 1737.73C912.25 1736.78 918.55 1735.14 923.5 1734.07C928.45 1733 939.02 1731.4 947 1730.51C954.98 1729.62 970.27 1728.3 981 1727.58C991.73 1726.86 1012.09 1726.21 1026.25 1726.13ZM996.86 1790.07L997.5 1930.29C1020.75 1929.35 1029.97 1928.6 1033 1928C1036.03 1927.41 1038.81 1926.38 1039.19 1925.71C1039.56 1925.05 1040.81 1918.42 1041.95 1911C1043.1 1903.58 1044.67 1891.42 1045.45 1884C1046.23 1876.58 1047.37 1863.97 1047.97 1856C1048.58 1848.03 1049.7 1831.15 1050.47 1818.5C1051.55 1800.77 1051.6 1795.24 1050.69 1794.38C1050.03 1793.77 1047.92 1792.72 1046 1792.06C1044.08 1791.39 1038 1790.65 1032.5 1790.4C1027 1790.16 1020.02 1789.85 1017 1789.73C1013.98 1789.6 1008.21 1789.63 1004.18 1789.79L996.86 1790.07ZM1289.5 1726.02L1299.5 1731.68L1304.63 1746.09C1307.45 1754.02 1312.5 1769.5 1315.86 1780.5C1319.21 1791.5 1324.46 1809.5 1327.51 1820.5C1330.57 1831.5 1336.42 1854 1340.5 1870.5C1344.59 1887 1350.71 1912.65 1354.09 1927.5C1358.78 1948.11 1360.24 1956.39 1360.27 1962.5C1360.3 1968.39 1359.78 1971.69 1358.31 1975C1357.21 1977.47 1355.12 1980.96 1353.66 1982.75C1351.69 1985.16 1349.25 1986.53 1344.25 1988.04C1340.54 1989.16 1333 1990.58 1327.5 1991.2C1320.03 1992.04 1314.97 1992.03 1307.5 1991.16C1302 1990.53 1295.25 1989.35 1292.5 1988.55C1289.75 1987.76 1286.53 1986.07 1285.34 1984.8C1283.2 1982.52 1283.19 1982.35 1284.23 1961C1285.16 1941.76 1285.08 1938.45 1283.48 1929.5C1282.49 1924 1281.42 1919.21 1281.09 1918.86C1280.77 1918.5 1268.35 1918.02 1226.5 1917.34L1220.68 1940.92C1217.47 1953.89 1213.77 1967.2 1212.46 1970.5C1211.14 1973.8 1208.14 1978.72 1205.78 1981.42C1203.01 1984.61 1199.56 1987.2 1196 1988.78C1191.94 1990.57 1188.01 1991.35 1181 1991.75C1175.3 1992.07 1168.7 1991.79 1164.5 1991.05C1160.65 1990.36 1154.8 1989 1151.5 1988.02C1148.2 1987.04 1142.39 1984.72 1138.59 1982.87C1134.78 1981.02 1129.89 1977.92 1123.76 1972.5L1124.87 1964C1125.48 1959.33 1126.9 1952.8 1128.04 1949.5C1129.17 1946.2 1130.94 1942.15 1131.97 1940.5C1133 1938.85 1134.89 1936.54 1138.5 1933.21L1157 1939L1157.51 1936.75C1157.79 1935.51 1160.29 1925.28 1163.07 1914C1165.84 1902.72 1173.94 1868.97 1181.05 1839C1188.17 1809.03 1193.88 1784.39 1193.75 1784.25C1193.61 1784.11 1184.5 1782.98 1153.5 1779.5L1151.82 1773C1150.71 1768.72 1150.14 1762.57 1150.15 1755C1150.16 1748.67 1150.69 1741.47 1152.5 1734.5L1162.5 1732.83C1168 1731.91 1180.15 1730.42 1189.5 1729.51C1198.85 1728.61 1211.9 1727.52 1218.5 1727.08C1225.1 1726.65 1243.78 1726.23 1289.5 1726.02ZM1243.57 1826.5C1240.49 1847.95 1237.98 1866.06 1237.99 1866.75C1238 1867.7 1242.27 1868 1256 1868C1265.9 1868 1274 1867.66 1274.01 1867.25C1274.01 1866.84 1270.07 1848.16 1265.26 1825.74L1256.5 1784.98C1251.42 1785 1249.77 1785.56 1249.55 1786.25C1249.34 1786.94 1246.64 1805.05 1243.57 1826.5ZM1498 1726.07C1504.63 1726.01 1509.92 1726.6 1515.5 1728.05C1519.9 1729.19 1525.3 1731.19 1527.5 1732.49C1529.7 1733.79 1533.08 1736.36 1535 1738.2C1536.92 1740.03 1539.51 1743.55 1540.74 1746.02C1541.98 1748.48 1543.43 1753.2 1543.99 1756.5C1544.54 1759.8 1544.99 1768.8 1544.98 1776.5C1544.98 1784.2 1544.54 1801.53 1543.99 1815C1543.45 1828.47 1542.08 1854.13 1540.96 1872C1539.83 1889.88 1537.59 1922.5 1535.99 1944.5C1533.87 1973.54 1532.72 1984.7 1531.79 1985.23C1531.08 1985.64 1526.9 1987.21 1522.5 1988.73C1515.31 1991.2 1513.19 1991.48 1501.5 1991.42C1490.44 1991.36 1487.46 1990.99 1474.5 1986.5L1473.82 1948C1473.44 1926.83 1473.05 1884.08 1472.96 1853C1472.86 1821.92 1473.1 1793.58 1474.2 1783.5L1446.15 1779.5L1444.6 1771.5C1443.74 1767.1 1442.7 1759.85 1442.27 1755.38C1441.65 1748.8 1441.78 1746.92 1443 1745.46C1443.83 1744.47 1447.2 1741.91 1450.5 1739.79C1453.8 1737.66 1460.1 1734.54 1464.5 1732.85C1468.9 1731.16 1476.1 1728.97 1480.5 1727.98C1484.9 1726.98 1492.78 1726.13 1498 1726.07ZM1628.5 1726.1C1634.64 1726.02 1640.05 1726.63 1645.5 1728.02C1649.9 1729.14 1655.08 1731.11 1657 1732.39C1658.92 1733.68 1661.77 1736.03 1663.32 1737.61C1664.87 1739.2 1667.33 1742.97 1668.77 1746C1671.24 1751.17 1671.42 1752.57 1671.81 1769.5C1672.03 1779.4 1671.69 1794.03 1671.05 1802C1670.41 1809.97 1668.75 1825.5 1667.36 1836.5C1665.96 1847.5 1662.5 1871.63 1654.5 1923.74L1664 1924.36C1669.22 1924.7 1678.67 1925.27 1696.5 1926.28L1701.67 1909.89C1704.52 1900.87 1708.57 1888.14 1714.5 1869.67L1723 1870.3C1727.67 1870.65 1734.65 1871.59 1738.5 1872.4C1742.35 1873.2 1746.74 1874.34 1748.25 1874.93C1750.42 1875.77 1751.31 1877.11 1752.46 1881.25C1753.26 1884.14 1754.59 1890.55 1755.41 1895.5C1756.23 1900.45 1757.43 1910.13 1758.08 1917C1758.74 1923.99 1759.01 1935.01 1758.68 1942C1758.36 1948.88 1757.37 1957.2 1756.49 1960.5C1755.6 1963.8 1753.67 1968.74 1752.19 1971.47C1750.61 1974.38 1747.43 1978.01 1744.5 1980.23C1741.75 1982.31 1736.13 1985.32 1732 1986.92C1727.88 1988.52 1720.9 1990.39 1716.5 1991.07C1710.38 1992.03 1706.86 1992.06 1701.5 1991.2C1697.65 1990.58 1690.9 1988.89 1686.5 1987.45C1682.1 1986.02 1673.78 1982.73 1668 1980.14C1662.22 1977.56 1653.56 1972.87 1648.75 1969.72C1643.94 1966.58 1639.89 1963.99 1639.75 1963.97C1639.61 1963.95 1637.7 1966.5 1635.5 1969.62C1633.3 1972.75 1629.25 1977.3 1626.5 1979.74C1623.75 1982.19 1618.8 1985.46 1615.5 1987.02C1612.2 1988.58 1606.58 1990.4 1603 1991.06C1597.07 1992.15 1596.11 1992.08 1592 1990.2C1589.53 1989.06 1585.49 1985.97 1583.04 1983.32C1580.59 1980.67 1577.4 1975.8 1575.94 1972.5C1574.48 1969.2 1572.77 1964.36 1572.14 1961.75C1571.52 1959.14 1570.72 1953.74 1570.37 1949.75C1570 1945.5 1570.25 1939.4 1570.98 1935C1571.66 1930.88 1573.13 1924.8 1574.25 1921.5C1575.36 1918.2 1576.32 1915.37 1576.39 1915.21C1576.45 1915.05 1580.55 1915.63 1585.5 1916.5C1590.45 1917.38 1595.17 1918.29 1596 1918.53C1597.32 1918.92 1597.5 1911.69 1597.54 1857.74C1597.56 1824.06 1597.92 1793.58 1599.13 1783.5L1571.01 1779.5L1569.89 1774C1569.27 1770.97 1568.38 1765.8 1567.9 1762.5C1567.43 1759.2 1567.03 1754.14 1567.02 1751.25C1567 1746.48 1567.32 1745.73 1570.5 1743C1572.42 1741.35 1576.14 1738.92 1578.75 1737.59C1581.36 1736.27 1585.97 1734.27 1589 1733.16C1592.03 1732.04 1596.53 1730.6 1599 1729.95C1601.47 1729.29 1607.1 1728.19 1611.5 1727.5C1615.9 1726.8 1623.55 1726.17 1628.5 1726.1ZM1809.25 1726.09C1814.06 1726.04 1820.36 1726.51 1823.25 1727.13C1826.14 1727.74 1830.53 1729.19 1833 1730.34C1835.47 1731.49 1839.56 1734.48 1842.07 1736.97C1845 1739.87 1847.42 1743.56 1848.82 1747.25C1850.02 1750.41 1851.27 1756.26 1851.6 1760.25C1851.93 1764.24 1851.7 1780.78 1851.09 1797C1850.48 1813.22 1849.64 1830.44 1848.5 1844.01L1904.5 1844.01L1905.79 1817.75C1906.5 1803.31 1907.34 1789.7 1908.23 1783.5L1899.37 1782.15C1894.49 1781.4 1888.92 1780.48 1887 1780.1C1883.67 1779.43 1883.44 1779.12 1882.25 1773.45C1881.56 1770.18 1880.71 1762.78 1879.72 1746.5L1883.86 1742.75C1886.14 1740.69 1890.36 1737.82 1893.25 1736.37C1896.14 1734.93 1901.42 1732.7 1905 1731.42C1908.58 1730.14 1914.42 1728.4 1918 1727.56C1921.58 1726.72 1928.89 1726.02 1934.25 1726.01C1939.61 1726.01 1946.36 1726.5 1949.25 1727.11C1952.14 1727.72 1957.16 1729.63 1960.41 1731.36C1963.65 1733.09 1968.06 1736.53 1970.21 1739C1972.35 1741.47 1974.98 1745.86 1976.05 1748.75C1977.12 1751.64 1978.48 1757.04 1979.07 1760.75C1979.71 1764.85 1979.89 1773.59 1979.5 1783C1979.15 1791.53 1978.21 1806.6 1977.4 1816.5C1976.59 1826.4 1974.8 1843.72 1973.44 1855C1972.07 1866.28 1969.39 1885.85 1967.48 1898.5C1965.56 1911.15 1963.37 1925.1 1962.6 1929.5C1961.82 1933.9 1961.37 1937.61 1961.59 1937.75C1961.82 1937.89 1967.29 1935.72 1985.5 1927.86L1987.86 1930.18C1989.15 1931.46 1991.45 1934.3 1992.95 1936.5C1994.46 1938.7 1996.49 1942.75 1997.46 1945.5C1998.43 1948.25 1999.43 1951.17 1999.68 1952C1999.93 1952.83 2001.02 1951.04 2002.11 1948C2003.19 1944.97 2005.28 1940.92 2006.75 1939C2008.22 1937.08 2010.11 1935.01 2010.96 1934.41C2012.12 1933.59 2014.71 1933.99 2030.5 1938.78L2031.73 1934.14C2032.4 1931.59 2038.8 1905.2 2045.94 1875.5C2053.08 1845.8 2060.85 1813.1 2067.5 1784.17L2064.5 1783.65C2062.85 1783.36 2053.77 1782.31 2027.14 1779.5L2026.11 1776C2025.53 1774.08 2024.54 1768.9 2023.9 1764.5C2023.03 1758.57 2023.01 1754.04 2023.82 1747C2024.42 1741.78 2025.15 1736.83 2025.45 1736C2025.83 1734.95 2029.34 1733.97 2037.25 1732.73C2043.44 1731.76 2055.25 1730.32 2063.5 1729.52C2071.75 1728.72 2085.36 1727.6 2093.75 1727.03C2102.14 1726.47 2121.15 1726 2163 1726L2168.25 1729C2173.49 1731.99 2173.51 1732.02 2177.25 1742.75C2179.31 1748.66 2183.68 1762.05 2186.97 1772.5C2190.25 1782.95 2195.43 1800.28 2198.47 1811C2201.52 1821.72 2207.8 1845.58 2212.43 1864C2217.05 1882.42 2223.79 1910.55 2227.4 1926.5C2231.94 1946.54 2233.98 1957.58 2233.99 1962.25C2233.99 1966.27 2233.29 1970.92 2232.23 1973.75C2231.26 1976.36 2229.18 1980.08 2227.61 1982C2226.04 1983.92 2224.25 1985.81 2223.63 1986.19C2223.01 1986.58 2218.9 1987.78 2214.5 1988.87C2210.1 1989.96 2202.68 1991.15 2198 1991.52C2193.04 1991.91 2185.33 1991.69 2179.5 1991C2174 1990.34 2167.25 1988.97 2164.5 1987.96C2161.75 1986.95 2158.91 1985.54 2158.2 1984.81C2157.15 1983.75 2157.09 1979.3 2157.93 1961.5C2158.9 1940.88 2158.84 1938.81 2154.79 1917.5L2127.39 1917.5C2103.88 1917.5 2099.92 1917.71 2099.55 1919C2099.31 1919.83 2097.46 1927.7 2095.43 1936.5C2093.41 1945.3 2090.25 1957.22 2088.42 1963C2086.59 1968.78 2083.61 1975.71 2081.8 1978.42C2079.98 1981.13 2077.15 1984.36 2075.5 1985.62C2073.85 1986.87 2070.47 1988.67 2068 1989.62C2064.61 1990.92 2060.29 1991.36 2050.5 1991.41C2039.86 1991.47 2035.96 1991.06 2029 1989.16C2024.33 1987.89 2017.35 1985.39 2013.5 1983.62C2009.65 1981.85 2004.54 1978.62 2002.15 1976.45C1997.97 1972.65 1997.81 1972.31 1998.5 1962.4L1992 1969.03C1988.42 1972.68 1981.9 1978.01 1977.5 1980.88C1973.1 1983.75 1967.25 1986.93 1964.5 1987.96C1961.75 1988.98 1955.67 1990.37 1951 1991.04C1944.45 1991.98 1940.9 1992 1935.5 1991.1C1931.65 1990.46 1925.8 1988.65 1922.5 1987.07C1918.8 1985.31 1914.85 1982.35 1912.19 1979.36C1909.46 1976.29 1907.25 1972.48 1906.19 1969C1904.74 1964.29 1904.5 1958.47 1904.5 1893L1889.5 1892.95C1881.25 1892.92 1867.75 1892.3 1859.5 1891.56C1851.25 1890.82 1844.47 1890.28 1844.43 1890.36C1844.39 1890.43 1844.71 1896.13 1845.14 1903C1845.57 1909.88 1846.42 1919.55 1847.03 1924.5C1847.65 1929.45 1849.69 1944.19 1851.57 1957.25C1853.46 1970.31 1855 1981.22 1855 1981.5C1855 1981.78 1853.76 1982.63 1852.25 1983.39C1850.74 1984.15 1844.78 1985.95 1839 1987.37C1833.22 1988.79 1823.55 1990.44 1817.5 1991.03C1809.62 1991.8 1804.51 1991.8 1799.5 1991.02C1795.65 1990.42 1791.15 1989.51 1789.5 1988.99C1786.77 1988.12 1786.43 1987.52 1785.7 1982.27C1785.27 1979.1 1784.27 1970.2 1783.49 1962.5C1782.71 1954.8 1781.56 1935.22 1780.94 1919C1780.29 1902.3 1780.08 1877.79 1780.44 1862.5C1780.79 1847.65 1781.51 1826.05 1782.05 1814.5C1782.58 1802.95 1783.27 1791.25 1784.18 1783.5L1764.56 1779.5L1763.31 1773.5C1762.62 1770.2 1761.74 1762.78 1760.69 1746.5L1765.76 1742C1768.55 1739.53 1774.14 1735.83 1778.17 1733.78C1782.2 1731.74 1788.88 1729.19 1793 1728.12C1797.42 1726.97 1804.09 1726.14 1809.25 1726.09ZM2117.47 1825.5C2114.44 1846.4 2111.74 1864.51 2111.48 1865.75L2111 1868C2139.68 1868 2147.99 1867.89 2147.97 1867.75C2147.96 1867.61 2143.98 1849.05 2139.14 1826.5L2130.35 1785.5C2124.3 1784.98 2123.1 1785.3 2123.06 1786.19C2123.02 1786.91 2120.5 1804.6 2117.47 1825.5Z" />
</svg>