<svg width="1078" height="859" viewBox="0 0 1078 859" fill="none" xmlns="http://www.w3.org/2000/svg">
<g clip-path="url(#clip0)">
<path opacity="0.1" d="M963.794 469.576C924.593 534.914 930.813 623.278 946.928 692.803C952.324 716.081 958.566 740.649 953.438 766.831C947.167 798.846 925.326 824.182 903.347 838.771C863.28 865.367 817.87 865.163 785.122 838.24C756.821 814.974 738.476 774.049 709.56 752.055C661.17 715.247 594.009 738.682 535.478 774.291C494.068 799.482 448.455 831.324 410.659 814.046C384.064 801.888 367.787 766.888 360.434 728.683C356.884 710.238 354.844 690.071 346.383 676.08C341.353 667.763 334.366 662.24 327.117 657.736C260.926 616.599 170.352 652.694 106.595 605.99C63.5357 574.448 39.5889 508.556 32.2733 437.878C24.9576 367.201 32.466 291.395 41.6578 216.74C48.19 163.686 56.8719 106.855 84.0364 63.4385C112.773 17.5101 157.501 -3.36766 196.133 0.440412C234.764 4.24848 268.056 29.4733 296.656 60.3683C332.399 98.9804 364.466 148.45 411.151 160.497C442.944 168.7 477.891 158.371 511.827 152.357C568.562 142.303 624.361 144.352 679.763 147.23C732.801 149.986 786.157 153.58 835.394 172.497C870.237 185.885 896.771 214.284 929.225 232.571C950.38 244.491 974.377 245.756 994.033 261.752C1018.25 281.456 1038.97 318.117 1028.66 364.873C1018.87 409.326 984.601 434.898 963.794 469.576Z" fill="#FEE205"/>
<path d="M172.655 442.961C172.655 442.961 258.655 458.961 320.655 374.961C320.655 374.961 268.655 323.961 232.655 334.961C196.655 345.961 172.655 410.961 172.655 410.961V442.961Z" fill="#F2CB05"/>
<path opacity="0.1" d="M172.655 442.961C172.655 442.961 258.655 458.961 320.655 374.961C320.655 374.961 268.655 323.961 232.655 334.961C196.655 345.961 172.655 410.961 172.655 410.961V442.961Z" fill="black"/>
<path d="M211.655 374.961L299.655 555.961L320.655 544.961L229.655 374.961H211.655Z" fill="#504F60"/>
<path d="M320.655 374.961C304.717 375.12 288.859 377.232 273.435 381.251C252.154 386.866 231.92 395.883 213.515 407.951C186.905 425.281 172.655 442.961 172.655 442.961C109.205 331.441 123.395 130.261 124.585 114.891V114.881C124.605 114.641 124.615 114.441 124.625 114.301C124.645 114.071 124.655 113.961 124.655 113.961C166.655 113.961 320.655 374.961 320.655 374.961Z" fill="#F2CB05"/>
<path d="M1076.12 591.751L978.655 617.961C978.655 617.961 828.655 620.961 776.655 665.961C724.655 710.961 573.655 705.961 569.655 705.961C565.655 705.961 509.655 656.961 407.655 707.961C305.655 758.961 183.655 726.961 183.655 726.961C183.655 726.961 56.655 779.961 20.655 761.961C-15.345 743.961 6.65497 719.961 6.65497 719.961C6.65497 719.961 80.655 662.961 23.655 599.961C-33.345 536.961 33.655 536.961 33.655 536.961H226.445C242.179 537.107 257.707 533.373 271.655 526.091C286.715 518.041 304.435 520.611 316.295 524.001C326.549 526.916 337.327 527.497 347.835 525.701C444.605 509.291 506.355 513.991 532.015 517.571C542.694 519.049 553.506 519.314 564.245 518.361C596.945 515.511 664.805 509.461 701.655 505.081C711.795 503.881 719.585 502.811 723.655 501.961C735.055 499.581 788.875 510.071 843.315 524.101C903.475 539.591 964.405 559.411 969.655 570.961C976.895 586.881 1040.7 587.611 1075.41 586.801C1076.03 586.788 1076.63 587.001 1077.1 587.399C1077.57 587.797 1077.87 588.353 1077.96 588.962C1078.05 589.571 1077.91 590.191 1077.57 590.704C1077.23 591.218 1076.72 591.59 1076.12 591.751Z" fill="#F4F2BB"/>
<path d="M696.655 664.961L672.655 669.961C672.655 669.961 577.655 618.961 564.655 635.961" fill="#D3D2A1"/>
<path d="M672.655 518.961C672.655 518.961 518.655 487.961 454.655 524.961Z" fill="#CCB2BB"/>
<path opacity="0.1" d="M556.785 574.668C556.785 574.668 518.283 558.93 519.97 567.923C521.656 576.916 541.328 585.91 541.328 585.91C541.328 585.91 502.545 582.537 504.231 596.027C504.231 596.027 548.635 594.903 546.949 605.02C545.263 615.137 546.949 628.627 554.256 625.817C561.563 623.006 566.06 590.406 585.732 606.144C605.405 621.882 602.594 589.844 578.425 587.034C578.425 587.034 591.353 577.478 590.229 572.982C589.105 568.485 556.785 574.668 556.785 574.668Z" fill="black"/>
<path d="M556.223 572.982C556.223 572.982 517.721 557.244 519.407 566.237C521.094 575.23 540.766 584.223 540.766 584.223C540.766 584.223 501.983 580.851 503.669 594.341C503.669 594.341 548.073 593.216 546.387 603.334C544.701 613.451 546.387 626.941 553.694 624.131C561.001 621.32 565.498 588.72 585.17 604.458C604.843 620.196 602.032 588.158 577.863 585.347C577.863 585.347 590.791 575.792 589.667 571.296C588.543 566.799 556.223 572.982 556.223 572.982Z" fill="#F89898"/>
<path d="M855.655 603.961C855.655 603.961 800.655 586.961 795.655 589.961Z" fill="#D3D2A1"/>
<path d="M428.655 618.961C428.655 618.961 502.655 597.961 530.655 613.961Z" fill="#D3D2A1"/>
<path d="M551.155 533.461C551.155 533.461 571.155 474.461 611.155 486.461C651.155 498.461 681.155 529.461 681.155 529.461L551.155 539.461V533.461Z" fill="#EED1D7"/>
<path d="M116.155 599.461C116.155 599.461 147.155 612.461 199.155 607.461C251.155 602.461 292.155 633.461 292.155 633.461" fill="#CCB2BB"/>
<g opacity="0.05">
<path opacity="0.05" d="M242.06 359.725C242.307 359.312 242.421 358.833 242.387 358.354C242.241 358.801 242.131 359.259 242.06 359.725V359.725Z" fill="url(#paint0_linear)"/>
</g>
<g opacity="0.05">
<path opacity="0.05" d="M242.06 359.036C242.307 358.623 242.421 358.145 242.387 357.665C242.241 358.113 242.131 358.571 242.06 359.036V359.036Z" fill="url(#paint1_linear)"/>
</g>
<g opacity="0.05">
<path opacity="0.05" d="M301.165 531.803C298.998 532.731 293.835 537.595 287.137 544.573C285.011 530.567 283.633 517.935 284.524 512.682C284.6 511.897 284.872 511.143 285.314 510.489C289.334 510.214 297.497 520.264 304.02 529.348C302.213 530.795 301.165 531.803 301.165 531.803Z" fill="url(#paint2_linear)"/>
</g>
<path d="M408.026 593.108C408.026 593.108 443.075 662.531 451.837 665.227C460.599 667.923 466.665 663.879 466.665 663.879C466.665 663.879 539.458 650.399 525.977 665.901C512.497 681.403 394.546 671.967 394.546 671.967L364.89 605.24L408.026 593.108Z" fill="#EF91A3"/>
<path opacity="0.1" d="M307.6 594.456C307.6 594.456 364.216 556.712 379.718 556.712C379.718 556.712 402.634 549.298 416.115 600.522C416.115 600.522 369.608 608.61 370.282 630.852L361.52 611.98L323.776 653.769L277.943 622.764L307.6 594.456Z" fill="black"/>
<path d="M307.6 593.108C307.6 593.108 364.216 555.364 379.718 555.364C379.718 555.364 402.634 547.95 416.115 599.174C416.115 599.174 369.608 607.262 370.282 629.504L361.52 610.632L323.776 652.421L277.943 621.416L307.6 593.108Z" fill="#735702"/>
<path d="M369.608 574.236C366.238 590.412 348.714 593.108 348.714 593.108L323.776 577.606C323.776 577.606 320.257 554.386 317.285 540.232C316.146 534.793 315.088 530.688 314.34 529.751C311.644 526.381 354.106 527.056 354.106 527.056C357.086 532.093 359.799 537.283 362.234 542.605C366.858 552.722 371.408 565.595 369.608 574.236Z" fill="#EF91A3"/>
<path d="M261.767 452.241L247.613 519.641L213.239 510.879C213.239 510.879 181.56 485.941 190.997 470.439C194.084 465.37 195.654 457.997 196.375 450.374C197.851 434.663 195.715 417.867 195.715 417.867C195.715 417.867 233.459 407.756 226.045 435.391C222.998 446.741 228.478 451.607 235.993 453.407C246.784 455.988 261.767 452.241 261.767 452.241Z" fill="#EF91A3"/>
<path opacity="0.1" d="M235.993 453.407C230.631 456.193 224.674 457.643 218.631 457.633C210.307 457.633 202.293 452.423 196.052 447.86C196.916 437.875 196.803 427.829 195.715 417.866C195.715 417.866 233.459 407.756 226.045 435.391C222.998 446.741 228.478 451.607 235.993 453.407Z" fill="black"/>
<path d="M218.631 456.285C239.476 456.285 256.375 439.386 256.375 418.541C256.375 397.695 239.476 380.796 218.631 380.796C197.785 380.796 180.886 397.695 180.886 418.541C180.886 439.386 197.785 456.285 218.631 456.285Z" fill="#EF91A3"/>
<path opacity="0.1" d="M215.809 497.277L226.045 511.553L231.869 490.44C234.119 481.992 235.305 473.297 235.401 464.556C235.449 460.849 236.656 457.25 238.851 454.263C249.354 448.534 257.152 445.51 270.389 446.869C283.503 448.301 295.961 453.349 306.372 461.451C345.715 491.666 364.216 541.884 364.216 541.884C364.216 541.884 310.296 531.1 312.992 543.232C312.992 543.232 289.401 505.487 284.009 511.553C278.617 517.619 295.467 597.826 295.467 597.826L184.93 605.914L155.948 529.077L157.296 471.787C157.296 471.787 185.941 458.644 192.007 458.644C194.131 458.644 193.806 457.905 194.703 461.34C198.161 474.578 207.836 486.157 215.809 497.277Z" fill="black"/>
<path opacity="0.1" d="M362.234 542.605C352.859 540.913 326.303 536.593 317.285 540.232C316.146 534.793 315.088 530.688 314.34 529.751C311.644 526.381 354.106 527.056 354.106 527.056C357.086 532.093 359.799 537.283 362.234 542.605V542.605Z" fill="black"/>
<path d="M217.157 496.603L227.393 510.879L233.217 489.766C235.467 481.318 236.653 472.623 236.749 463.882C236.797 460.175 238.004 456.576 240.199 453.589C250.702 447.86 258.5 444.836 271.737 446.195C284.851 447.627 297.309 452.675 307.72 460.777C347.063 490.992 365.564 541.21 365.564 541.21C365.564 541.21 311.644 530.426 314.34 542.558C314.34 542.558 290.749 504.813 285.357 510.879C279.965 516.945 296.815 597.152 296.815 597.152L186.278 605.24L157.296 528.403L158.644 471.113C158.644 471.113 187.289 457.97 193.355 457.97C195.479 457.97 195.154 457.231 196.051 460.666C199.509 473.904 209.184 485.483 217.157 496.603Z" fill="#F2B705"/>
<path opacity="0.1" d="M192.426 445.205C188.639 445.881 184.227 444.603 182.381 441.227C181.651 439.552 181.133 437.791 180.84 435.987C178.883 428.309 172.481 422.575 169.328 415.306C164.017 403.061 168.68 389.011 173.354 376.509C175.651 370.366 178.12 363.966 183.022 359.609C190.555 352.912 201.788 352.753 211.781 354.071C215.829 354.604 219.9 355.321 223.971 354.999C228.041 354.677 232.211 353.167 234.787 349.998C236.957 351.407 236.154 354.664 235.712 357.213C235.275 359.727 235.635 362.673 237.664 364.221C239.693 365.77 243.479 364.494 243.309 361.948C241.485 367.346 245.513 373.314 250.702 375.669C252.424 376.434 254.243 376.959 256.107 377.231C259.236 377.68 262.093 379.253 264.145 381.656C266.197 384.059 267.304 387.128 267.258 390.288L267.257 390.346C267.311 391.047 267.153 391.749 266.803 392.36C266.371 392.848 265.819 393.214 265.202 393.425C259.966 395.821 255.687 399.905 253.049 405.023C251.652 407.753 250.6 410.916 248.025 412.58C244.859 414.626 240.717 413.607 236.959 413.897C233.848 414.194 230.896 415.411 228.481 417.395C226.066 419.378 224.297 422.036 223.401 425.03C222.528 428.152 222.644 431.553 220.691 434.327C220.276 434.954 219.733 435.485 219.097 435.886C218.461 436.287 217.748 436.548 217.003 436.652C214.08 436.969 212.736 434.347 210.639 432.994C205.708 429.813 202.564 434.012 201.007 437.972C199.296 442.323 198.102 444.193 192.426 445.205Z" fill="black"/>
<path d="M192.426 444.531C188.639 445.207 184.227 443.929 182.381 440.553C181.651 438.878 181.133 437.117 180.84 435.313C178.883 427.635 172.481 421.901 169.328 414.632C164.017 402.387 168.68 388.337 173.354 375.835C175.651 369.692 178.12 363.292 183.022 358.935C190.555 352.238 201.788 352.079 211.781 353.397C215.829 353.93 219.9 354.647 223.971 354.325C228.041 354.003 232.211 352.493 234.787 349.324C236.957 350.733 236.154 353.99 235.712 356.539C235.275 359.053 235.635 361.999 237.664 363.547C239.693 365.096 243.479 363.82 243.309 361.274C241.485 366.672 245.513 372.64 250.702 374.995C252.424 375.76 254.243 376.285 256.107 376.557C259.236 377.006 262.093 378.579 264.145 380.982C266.197 383.385 267.304 386.454 267.258 389.614L267.257 389.672C267.311 390.373 267.153 391.075 266.803 391.686C266.371 392.174 265.819 392.54 265.202 392.751C259.966 395.147 255.687 399.231 253.049 404.349C251.652 407.079 250.6 410.242 248.025 411.906C244.859 413.952 240.717 412.933 236.959 413.223C233.848 413.52 230.896 414.737 228.481 416.721C226.066 418.704 224.297 421.362 223.401 424.356C222.528 427.478 222.644 430.879 220.691 433.653C220.276 434.28 219.733 434.811 219.097 435.212C218.461 435.613 217.748 435.874 217.003 435.978C214.08 436.295 212.736 433.673 210.639 432.32C205.708 429.139 202.564 433.338 201.007 437.298C199.296 441.649 198.102 443.519 192.426 444.531Z" fill="#572142"/>
<g opacity="0.05">
<path opacity="0.05" d="M299.632 460.103C336.021 488.049 354.578 533.102 357.16 539.711C362.184 540.534 365.564 541.21 365.564 541.21C365.564 541.21 347.063 490.992 307.72 460.776C297.309 452.675 284.851 447.627 271.737 446.195C269.901 446.006 268.177 445.91 266.529 445.886C278.595 447.724 289.991 452.618 299.632 460.103V460.103Z" fill="black"/>
<path opacity="0.05" d="M187.963 459.992C191.421 473.23 201.096 484.809 209.069 495.929L219.305 510.205L221.418 502.546L217.157 496.603C209.184 485.483 199.509 473.904 196.051 460.666C195.154 457.231 195.479 457.97 193.355 457.97C191.446 458.147 189.567 458.569 187.765 459.226C187.825 459.457 187.889 459.705 187.963 459.992Z" fill="black"/>
<path opacity="0.05" d="M310.752 537.03C312.942 540.322 314.34 542.558 314.34 542.558C313.163 537.265 322.763 536.334 333.96 536.966C325.175 536.033 316.056 535.632 310.752 537.03Z" fill="black"/>
<path opacity="0.05" d="M284.566 513.052C281.379 510.054 278.691 508.606 277.269 510.205C271.877 516.271 288.727 596.478 288.727 596.478L185.814 604.008L186.279 605.24L296.816 597.152C296.816 597.152 282.145 527.317 284.566 513.052Z" fill="black"/>
</g>
<path d="M182.43 673.51C175.98 678.848 157.667 691.641 135.054 686.795C112.515 681.962 131.421 671.158 140.062 666.945C140.519 666.723 140.921 666.401 141.236 666.002C141.552 665.603 141.773 665.138 141.884 664.642C141.995 664.146 141.992 663.631 141.876 663.136C141.76 662.641 141.534 662.178 141.214 661.783C136.259 655.73 130.567 650.321 124.27 645.681C118.777 641.637 112.165 634.357 106.409 627.368V627.361C103.383 623.701 100.606 620.129 98.3409 617.13C97.9154 616.566 97.6768 615.883 97.6587 615.177C97.6405 614.471 97.8437 613.777 98.2397 613.192C98.6358 612.608 99.2048 612.161 99.8672 611.916C100.53 611.671 101.252 611.639 101.933 611.825L146.121 623.823C146.813 624.01 147.427 624.414 147.874 624.975L162.398 643.126L182.922 668.779C183.478 669.474 183.739 670.36 183.646 671.245C183.554 672.131 183.117 672.945 182.43 673.51V673.51Z" fill="#EF91A3"/>
<path opacity="0.1" d="M162.398 643.126C125.524 616.233 111.605 621.039 106.409 627.361C103.383 623.701 100.606 620.129 98.3409 617.13C97.9154 616.566 97.6768 615.883 97.6587 615.177C97.6405 614.471 97.8437 613.777 98.2397 613.192C98.6358 612.608 99.2048 612.161 99.8672 611.916C100.53 611.671 101.252 611.639 101.933 611.825L146.121 623.823C146.813 624.01 147.427 624.414 147.874 624.975L162.398 643.126Z" fill="black"/>
<path d="M131.684 560.082C131.684 560.082 72.3715 540.536 81.8075 581.65C91.2436 622.764 103.376 632.874 103.376 632.874C103.376 632.874 106.746 600.522 164.036 642.985L143.816 610.632L167.406 580.976L131.684 560.082Z" fill="#735702"/>
<path opacity="0.1" d="M117.53 523.011C117.53 523.011 112.138 551.32 131.684 585.694C147.179 612.944 128.789 625.369 120.5 629.349C119.413 629.87 118.192 630.044 117.003 629.844C115.815 629.645 114.717 629.083 113.86 628.235C108.4 622.833 97.9309 609.132 104.05 587.716L108.094 576.932L85.8516 560.756C85.8516 560.756 79.834 538.436 82.5058 533.42C85.1776 528.403 106.746 514.923 106.746 514.923L117.53 523.011Z" fill="black"/>
<path d="M117.53 521.663C117.53 521.663 112.138 549.972 131.684 584.346C147.179 611.596 128.789 624.02 120.5 628C119.413 628.522 118.192 628.696 117.003 628.496C115.815 628.297 114.717 627.735 113.86 626.887C108.4 621.485 97.9309 607.784 104.05 586.368L108.094 575.584L85.8516 559.408C85.8516 559.408 79.834 537.088 82.5058 532.072C85.1776 527.055 106.746 513.575 106.746 513.575L117.53 521.663Z" fill="#EF91A3"/>
<path d="M166.732 467.743C166.732 467.743 118.204 495.377 97.9837 513.575C77.7635 531.774 81.8075 537.84 81.8075 537.84C81.8075 537.84 101.354 501.443 118.204 533.122C118.204 533.122 165.384 498.747 178.19 513.575C190.997 528.404 166.732 467.743 166.732 467.743Z" fill="#DFECFB"/>
<path d="M148.534 626.808L188.974 618.72L184.256 639.614L154.95 636.563L148.534 626.808Z" fill="#5D526E"/>
<path d="M218.631 537.84L217.283 552.668L168.754 544.58L153.926 535.144L131.684 527.055C134.307 519.826 134.718 511.98 132.864 504.517C132.023 501.298 130.717 498.219 128.988 495.377C119.552 479.875 168.754 486.615 168.754 486.615C168.221 490.11 167.973 493.642 168.013 497.177C168.114 508.439 171.302 524.312 188.975 521.663L203.803 530.426L218.631 537.84Z" fill="#FFC1CD"/>
<path d="M170.776 516.945C170.776 516.945 195.715 506.161 207.847 528.404C219.979 550.646 225.371 549.298 225.371 549.298L201.107 533.796L170.776 516.945Z" fill="#FFC1CD"/>
<path d="M191.671 629.504C191.671 629.504 172.798 645.007 183.582 664.553C194.367 684.099 261.767 680.729 261.767 680.729C261.767 680.729 218.982 664.653 229.59 610.682C229.59 610.682 199.085 619.394 191.671 629.504Z" fill="#735702"/>
<path d="M281.313 652.421L274.573 678.033L298.163 673.315C298.163 673.315 288.053 651.747 289.401 645.681C290.749 639.615 281.313 652.421 281.313 652.421Z" fill="#5F5470"/>
<path d="M300.185 621.416C300.185 621.416 361.52 627.482 378.37 636.918L391.176 640.962C391.176 640.962 395.894 639.614 406.004 648.377L458.577 660.509L499.017 668.597C499.017 668.597 536.088 675.337 538.784 673.989C541.48 672.641 559.678 684.099 542.154 689.491C524.629 694.883 488.233 686.795 488.233 686.795C488.233 686.795 461.273 683.425 455.207 685.447C449.141 687.469 408.026 681.403 408.026 681.403L367.586 684.099C367.586 684.099 360.846 673.989 343.322 677.359C330.816 679.764 309.044 675.99 297.599 673.632C295.383 673.177 293.353 672.072 291.768 670.459C290.183 668.845 289.114 666.796 288.7 664.572L284.683 642.984L300.185 621.416Z" fill="#FFC1CD"/>
<path opacity="0.05" d="M300.185 621.416C300.185 621.416 361.52 627.482 378.37 636.918L391.176 640.962C391.176 640.962 395.894 639.614 406.004 648.377L458.577 660.509L499.017 668.597C499.017 668.597 536.088 675.337 538.784 673.989C541.48 672.641 559.678 684.099 542.154 689.491C524.629 694.883 488.233 686.795 488.233 686.795C488.233 686.795 461.273 683.425 455.207 685.447C449.141 687.469 408.026 681.403 408.026 681.403L367.586 684.099C367.586 684.099 360.846 673.989 343.322 677.359C330.816 679.764 309.044 675.99 297.599 673.632C295.383 673.177 293.353 672.072 291.768 670.459C290.183 668.845 289.114 666.796 288.7 664.572L284.683 642.984L300.185 621.416Z" fill="black"/>
<path opacity="0.1" d="M168.013 497.177C163.252 501.272 157.531 504.093 151.384 505.377C145.237 506.661 138.865 506.365 132.863 504.517C132.023 501.298 130.717 498.219 128.988 495.377C119.552 479.875 168.754 486.615 168.754 486.615C168.221 490.11 167.973 493.642 168.013 497.177Z" fill="black"/>
<path d="M143.816 504.813C164.289 504.813 180.886 488.216 180.886 467.743C180.886 447.27 164.289 430.673 143.816 430.673C123.343 430.673 106.746 447.27 106.746 467.743C106.746 488.216 123.343 504.813 143.816 504.813Z" fill="#FFC1CD"/>
<path opacity="0.1" d="M128.314 522.337C128.314 522.337 156.622 537.84 157.97 547.95C159.318 558.06 153.926 570.192 153.926 570.192C153.926 570.192 166.732 647.029 182.908 652.421L226.045 610.632L262.441 594.456C262.441 594.456 240.873 593.108 238.851 572.888C236.829 552.668 241.547 545.928 217.283 536.492C193.019 527.055 179.875 515.934 179.875 515.934L173.61 517.515L205.825 534.47C205.825 534.47 224.023 545.254 176.842 537.166L132.358 520.989L128.314 522.337Z" fill="black"/>
<path d="M127.64 520.989C127.64 520.989 155.948 536.492 157.296 546.602C158.644 556.712 153.252 568.844 153.252 568.844C153.252 568.844 166.058 645.681 182.234 651.073L225.371 609.284L261.767 593.108C261.767 593.108 240.199 591.76 238.177 571.54C236.155 551.32 240.873 544.58 216.609 535.144C192.345 525.707 179.201 514.586 179.201 514.586L172.936 516.167L205.151 533.122C205.151 533.122 223.349 543.906 176.168 535.818L131.684 519.641L127.64 520.989Z" fill="#FF808C"/>
<path opacity="0.1" d="M137.75 526.381C137.75 526.381 110.116 516.271 116.856 548.624C123.596 580.976 158.644 636.918 158.644 636.918L240.873 608.61C240.873 608.61 266.485 589.064 259.745 587.042C253.005 585.02 217.283 597.826 217.283 597.826L168.754 605.24L157.296 572.888C157.296 572.888 168.08 565.474 164.71 556.038C164.677 555.943 164.643 555.849 164.608 555.754C160.03 543.193 150.801 532.871 138.829 526.921L137.75 526.381Z" fill="black"/>
<path d="M136.402 525.033C136.402 525.033 108.768 514.923 115.508 547.276C122.248 579.628 157.296 635.57 157.296 635.57L239.525 607.262C239.525 607.262 265.137 587.716 258.397 585.694C251.657 583.672 215.935 596.478 215.935 596.478L167.406 603.892L155.948 571.54C155.948 571.54 166.732 564.126 163.362 554.69C163.329 554.595 163.295 554.501 163.26 554.406C158.682 541.845 149.453 531.523 137.481 525.573L136.402 525.033Z" fill="#FFC1CD"/>
<path opacity="0.1" d="M138.978 414.581C135.778 413.662 132.44 413.313 129.119 413.549C125.991 414.007 122.96 414.975 120.146 416.413C115.615 418.527 111.277 421.033 107.183 423.903C104.429 425.833 101.731 427.955 98.5539 429.057C93.7889 430.708 88.2761 429.941 83.8858 432.422C77.733 435.9 76.3579 444.238 77.2664 451.246C78.175 458.255 80.6611 465.24 79.5558 472.221C77.9016 482.667 68.8419 490.088 60.5186 496.614C57.8976 498.669 55.0843 501.082 54.682 504.388C54.4303 506.456 55.1892 508.494 55.8231 510.478C59.3341 521.346 59.1513 533.07 55.3031 543.823C51.3716 554.57 43.6237 563.495 33.5357 568.897C29.7098 570.895 25.0677 572.936 24.1716 577.158C23.034 582.518 28.8063 586.671 33.9461 588.571C38.1391 590.12 42.4747 591.253 46.89 591.952C50.7732 592.566 54.9249 592.806 58.4686 591.103C62.5923 589.122 65.1075 584.918 67.2868 580.896C75.7719 565.234 86.1884 557.556 91.6784 540.611C92.8625 536.956 94.7508 532.609 98.5747 532.239C100.966 532.008 103.128 533.516 105.161 534.797C114.97 540.976 125.271 534.051 134.401 526.907C136.513 525.254 138.321 523.18 140.672 521.89C145.668 519.149 152.944 519.933 155.939 515.085C156.635 513.807 157.119 512.425 157.373 510.992C158.6 505.721 159.826 500.189 158.408 494.966C157.095 490.134 153.673 486.173 151.656 481.59C149.64 477.007 149.524 470.744 153.644 467.898C154.879 467.045 156.365 466.604 157.581 465.723C161.121 463.155 161.201 458.024 161.181 453.65C161.091 452.569 161.277 451.483 161.72 450.492C162.368 449.551 163.22 448.768 164.213 448.203C168.146 445.508 171.208 441.726 173.025 437.319C174.811 432.502 170.238 430.322 166.584 427.615C158.33 421.496 148.948 417.067 138.978 414.581V414.581Z" fill="black"/>
<path d="M138.304 413.907C135.104 412.988 131.766 412.639 128.445 412.875C125.317 413.333 122.286 414.301 119.472 415.739C114.941 417.853 110.603 420.359 106.509 423.229C103.755 425.159 101.057 427.281 97.8799 428.383C93.1149 430.034 87.6021 429.267 83.2118 431.748C77.059 435.226 75.6839 443.564 76.5924 450.572C77.501 457.581 79.9871 464.566 78.8818 471.547C77.2276 481.993 68.1679 489.414 59.8445 495.94C57.2235 497.995 54.4103 500.408 54.0079 503.714C53.7563 505.782 54.5152 507.82 55.1491 509.804C58.6601 520.672 58.4772 532.396 54.6291 543.149C50.6976 553.896 42.9497 562.821 32.8617 568.223C29.0358 570.221 24.3937 572.262 23.4976 576.484C22.36 581.844 28.1323 585.997 33.272 587.897C37.4651 589.446 41.8007 590.579 46.216 591.278C50.0992 591.892 54.2509 592.132 57.7946 590.429C61.9183 588.448 64.4335 584.244 66.6129 580.222C75.0979 564.56 85.5143 556.882 91.0044 539.937C92.1885 536.282 94.0768 531.935 97.9007 531.565C100.292 531.334 102.454 532.842 104.487 534.123C114.296 540.302 124.597 533.377 133.727 526.233C135.839 524.58 137.647 522.506 139.998 521.216C144.994 518.475 152.27 519.259 155.265 514.411C155.961 513.133 156.445 511.751 156.699 510.318C157.926 505.047 159.152 499.515 157.734 494.292C156.421 489.46 152.999 485.499 150.982 480.916C148.966 476.333 148.85 470.07 152.97 467.224C154.205 466.371 155.691 465.93 156.907 465.049C160.447 462.48 160.527 457.35 160.507 452.977C160.418 451.895 160.603 450.809 161.046 449.818C161.694 448.877 162.546 448.094 163.539 447.529C167.472 444.834 170.534 441.052 172.351 436.645C174.137 431.828 169.564 429.648 165.91 426.941C157.656 420.822 148.274 416.393 138.304 413.907V413.907Z" fill="#B46D86"/>
<path d="M452.174 709.374C433.875 713.236 380.48 711.598 372.641 705.33C360.644 695.732 363.596 687.206 364.391 685.447H364.216C364.216 685.447 370.956 669.271 364.216 657.139C364.216 657.139 363.542 642.311 349.388 630.852C335.234 619.394 319.732 587.042 319.732 587.042L311.644 603.892C311.644 603.892 299.485 640.888 286.874 657.314C284.351 660.573 282.633 664.38 281.859 668.428C281.023 672.883 278.139 678.498 269.181 680.055L268.716 680.136C262.444 681.185 256.003 680.422 250.149 677.937C244.296 675.453 239.273 671.35 235.67 666.11C229.637 657.424 222.804 645.368 221.259 633.626C220.755 629.676 221.083 625.664 222.222 621.848C223.361 618.032 225.285 614.496 227.871 611.468L227.946 611.38C242.464 594.227 292.798 535.224 300.86 531.774C300.86 531.774 337.256 496.725 351.41 543.906C365.564 591.086 370.282 605.24 370.282 605.24C370.282 605.24 387.206 635.469 391.85 645.681C396.649 656.235 416.613 682.562 418.642 685.224C420.496 686.492 438.337 698.59 444.086 698.59C446.627 698.59 465.357 706.59 452.174 709.374Z" fill="#FFC1CD"/>
<g opacity="0.05">
<path opacity="0.05" d="M366.974 666.636C367.547 661.397 367.234 655.157 364.216 649.725C364.216 649.725 363.542 634.896 349.388 623.438C335.234 611.98 319.732 579.628 319.732 579.628L311.644 596.478C311.644 596.478 299.485 633.474 286.874 649.9C284.351 653.158 282.633 656.966 281.859 661.014C281.023 665.469 278.139 671.084 269.181 672.641L268.716 672.722C262.444 673.77 256.003 673.008 250.149 670.523C244.296 668.039 239.273 663.936 235.67 658.696C229.704 650.106 222.965 638.222 221.321 626.603C220.946 629.153 220.925 631.743 221.259 634.3C222.804 646.042 229.637 658.098 235.67 666.784C239.273 672.024 244.296 676.127 250.149 678.611C256.003 681.096 262.444 681.859 268.716 680.81L269.181 680.729C278.139 679.172 281.023 673.557 281.859 669.102C282.633 665.054 284.351 661.247 286.874 657.988C299.485 641.562 311.644 604.566 311.644 604.566L319.732 587.716C319.732 587.716 335.234 620.068 349.388 631.526C363.542 642.985 364.216 657.813 364.216 657.813C365.697 660.548 366.633 663.544 366.974 666.636V666.636Z" fill="black"/>
</g>
<path opacity="0.05" d="M191.333 579.291C191.333 579.291 220.316 578.617 218.294 569.181Z" fill="black"/>
<path d="M648.655 592.961C648.655 592.961 692.655 573.961 722.655 593.961C752.655 613.961 812.655 623.961 812.655 623.961" fill="#D3D2A1"/>
</g>
<defs>
<linearGradient id="paint0_linear" x1="242.226" y1="359.725" x2="242.226" y2="358.354" gradientUnits="userSpaceOnUse">
<stop stop-color="#808080" stop-opacity="0.25"/>
<stop offset="0.53514" stop-color="#808080" stop-opacity="0.12"/>
<stop offset="1" stop-color="#808080" stop-opacity="0.1"/>
</linearGradient>
<linearGradient id="paint1_linear" x1="343.013" y1="878.255" x2="343.013" y2="876.375" gradientUnits="userSpaceOnUse">
<stop stop-color="#808080" stop-opacity="0.25"/>
<stop offset="0.53514" stop-color="#808080" stop-opacity="0.12"/>
<stop offset="1" stop-color="#808080" stop-opacity="0.1"/>
</linearGradient>
<linearGradient id="paint2_linear" x1="7305.76" y1="19780.8" x2="7305.76" y2="18618.7" gradientUnits="userSpaceOnUse">
<stop stop-color="#808080" stop-opacity="0.25"/>
<stop offset="0.53514" stop-color="#808080" stop-opacity="0.12"/>
<stop offset="1" stop-color="#808080" stop-opacity="0.1"/>
</linearGradient>
<clipPath id="clip0">
<rect width="1077.99" height="858.576" fill="white"/>
</clipPath>
</defs>
</svg>
